<svg xmlns="http://www.w3.org/2000/svg" xmlns:xlink="http://www.w3.org/1999/xlink" xmlns:lucid="lucid" width="1195.03" height="696.37"><g transform="translate(-169.33071882827244 -87.99999999999999)" lucid:page-tab-id="1C47.vYBqJOJ"><path d="M0 0h1760v1360H0z" fill="#fff"/><g filter="url(#a)"><path d="M190.83 115.5a6 6 0 0 1 6-6h321.53a6 6 0 0 1 6 6v82.26a6 6 0 0 1-6 6H196.83a6 6 0 0 1-6-6z" stroke="#ced4db" fill="#f2f3f5"/><use xlink:href="#b" transform="matrix(1,0,0,1,202.83071882827244,121.5) translate(21.975308641975317 26.65277777777778)"/><use xlink:href="#c" transform="matrix(1,0,0,1,202.83071882827244,121.5) translate(148.76543209876544 26.65277777777778)"/><use xlink:href="#d" transform="matrix(1,0,0,1,202.83071882827244,121.5) translate(194.320987654321 26.65277777777778)"/><use xlink:href="#e" transform="matrix(1,0,0,1,202.83071882827244,121.5) translate(38.61111111111113 53.31944444444445)"/><use xlink:href="#f" transform="matrix(1,0,0,1,202.83071882827244,121.5) translate(212.19135802469134 53.31944444444445)"/></g><g filter="url(#g)"><path d="M605.5 419.67a6 6 0 0 1 6-6H922.2a6 6 0 0 1 6 6V489a6 6 0 0 1-6 6H611.5a6 6 0 0 1-6-6z" stroke="#1071e5" fill="#1071e5"/><use xlink:href="#h" transform="matrix(1,0,0,1,610.5081795157955,418.6666666666667) translate(6.90123456790127 26.777777777777775)"/><use xlink:href="#i" transform="matrix(1,0,0,1,610.5081795157955,418.6666666666667) translate(111.65432098765432 26.777777777777775)"/><use xlink:href="#j" transform="matrix(1,0,0,1,610.5081795157955,418.6666666666667) translate(220.9753086419753 26.777777777777775)"/><use xlink:href="#k" transform="matrix(1,0,0,1,610.5081795157955,418.6666666666667) translate(56.68518518518522 53.44444444444444)"/><use xlink:href="#l" transform="matrix(1,0,0,1,610.5081795157955,418.6666666666667) translate(165.14197530864197 53.44444444444444)"/></g><g filter="url(#m)"><path d="M1009.33 115.5a6 6 0 0 1 6-6h321.53a6 6 0 0 1 6 6v82.26a6 6 0 0 1-6 6h-321.53a6 6 0 0 1-6-6z" stroke="#ced4db" fill="#f2f3f5"/><use xlink:href="#n" transform="matrix(1,0,0,1,1021.3316666666667,121.49999999999999) translate(54.1358024691358 39.96527777777778)"/><use xlink:href="#o" transform="matrix(1,0,0,1,1021.3316666666667,121.49999999999999) translate(163.4567901234568 39.96527777777778)"/></g><path d="M767.85 667.1h-2v-57.7h2zm0-79.03h-2V514h2z" stroke="#6f7681" stroke-width=".05" fill="#6f7681"/><path d="M767.85 668.1h-2v-1h2z" fill="#6f7681"/><path d="M767.87 668.14h-2.05v-1.08h2.05zm-2-1.03v1h1.95v-1z" stroke="#6f7681" stroke-width=".05" fill="#6f7681"/><path d="M771.48 513h-9.27l4.65-14.26z" fill="#6f7681"/><path d="M772.86 514h-12.03l6.02-18.5zm-9.27-2h6.5l-3.25-10.03z" stroke="#6f7681" stroke-width=".05" fill="#6f7681"/><use xlink:href="#p" transform="matrix(1,0,0,1,731.8830585230196,588.0737677755354) translate(0 14.222222222222223)"/><path d="M767.85 394.66h-2V331.8h2zm0-84.2h-2V230.1h2z" stroke="#6f7681" stroke-width=".05" fill="#6f7681"/><path d="M767.85 230.12h-2v-.83l2-.4z" fill="#6f7681"/><path d="M767.87 230.15h-2.05v-.88l2.05-.4zm-2-.84v.8h1.95v-1.17z" stroke="#6f7681" stroke-width=".05" fill="#6f7681"/><path d="M766.85 409.93l-4.64-14.27h9.28z" fill="#6f7681"/><path d="M766.85 413.17l-6.02-18.5h12.03zm-3.26-16.5l3.25 10.02 3.25-10.04z" stroke="#6f7681" stroke-width=".05" fill="#6f7681"/><use xlink:href="#q" transform="matrix(1,0,0,1,736.3028116094393,310.4641504355187) translate(0 14.222222222222223)"/><use xlink:href="#r" transform="matrix(1,0,0,1,736.3028116094393,310.4641504355187) translate(44.39506172839507 14.222222222222223)"/><path d="M1176.08 205.26l-.22 10.56-.72 11.34-1.17 11.14-1.6 10.93-2.06 10.72-2.45 10.5-2.87 10.3-3.27 10.06-3.65 9.85-4.05 9.62-4.4 9.37-4.78 9.13-5.12 8.87-5.47 8.6-5.8 8.36-6.12 8.06-6.42 7.78-6.74 7.48-7.03 7.18-7.3 6.87-7.6 6.55-7.85 6.22-8.1 5.9-8.36 5.55-8.6 5.2-8.83 4.84-9.04 4.5-9.27 4.12-9.48 3.75-9.7 3.38-9.9 3-10.1 2.6-10.3 2.18-10.52 1.78-10.73 1.35-9.26.77" stroke="#6f7681" stroke-width="2" stroke-linejoin="round" fill="none"/><path d="M1177.08 205.3l-2-.03.02-1h2z" stroke="#6f7681" stroke-width=".05" fill="#6f7681"/><path d="M931.92 454.22l14.1-5.15.32 9.26z" stroke="#6f7681" stroke-width="2" fill="#6f7681"/><use xlink:href="#s" transform="matrix(1,0,0,1,1058.324614305731,356.1598901823794) translate(0 14.222222222222223)"/><path d="M308.35 431.9h-2V318.03h2zm0-135.2h-2v-91.44h2z" stroke="#6f7681" stroke-width=".05" fill="#6f7681"/><path d="M308.35 205.28h-2v-1.02h2z" fill="#6f7681"/><path d="M308.38 205.3h-2.05v-1.07h2.05zm-2-1.02v.98h1.95v-.98z" stroke="#6f7681" stroke-width=".05" fill="#6f7681"/><path d="M307.35 447.17l-4.63-14.26H312z" fill="#6f7681"/><path d="M307.35 450.4l-6-18.5h12zm-3.26-16.5l3.25 10.04 3.26-10.03z" stroke="#6f7681" stroke-width=".05" fill="#6f7681"/><use xlink:href="#t" transform="matrix(1,0,0,1,261.0561279583328,296.690620884461) translate(0 14.222222222222223)"/><use xlink:href="#u" transform="matrix(1,0,0,1,261.0561279583328,296.690620884461) translate(57.13580246913581 14.222222222222223)"/><path d="M393.7 691.12l8.07 4.44 8.53 4.23 9 4 9.46 3.74 9.9 3.45 10.33 3.1 10.73 2.76 11.1 2.36 11.4 1.92 11.67 1.48 11.9 1 12.02.5 5.05.05-.02 2-5.08-.05-12.1-.5-11.98-1-11.76-1.5-11.5-1.94-11.17-2.37-10.8-2.77-10.43-3.14-9.98-3.5-9.53-3.76-9.08-4.04-8.6-4.27-8.15-4.48-3.77-2.28h3.86zm-87-124.58l1 6.84 1.3 6.67 1.5 6.5 1.8 6.36 2 6.24 2.28 6.1 2.53 6.02 2.8 5.9 3.03 5.82 3.3 5.73 3.6 5.66 3.87 5.58 4.18 5.5 4.5 5.44 4.83 5.36 5.2 5.3 5.53 5.2 2.9 2.5h-3.06l-1.18-1.02-5.62-5.26-5.23-5.35-4.88-5.4-4.56-5.5-4.22-5.58-3.92-5.65-3.64-5.72-3.35-5.8-3.07-5.9-2.82-5.98-2.56-6.08-2.3-6.2-2.05-6.3-1.8-6.45-1.54-6.6-1.3-6.73-1-6.93-.38-3.48 2-.2z" stroke="#6f7681" stroke-width=".05" fill="#6f7681"/><path d="M309.92 561.97l-9.25.5 3.86-14.5z" fill="#6f7681"/><path d="M311.35 562.9l-12 .64 5-18.8zm-9.36-1.5l6.5-.35-3.8-9.84z" stroke="#6f7681" stroke-width=".05" fill="#6f7681"/><path d="M523.86 724.18v2h-1.04l.02-2z" fill="#6f7681"/><path d="M523.9 724.16v2.05h-1.1l.02-2.05zm-1.05 2h1v-1.95h-.98z" stroke="#6f7681" stroke-width=".05" fill="#6f7681"/><use xlink:href="#v" transform="matrix(1,0,0,1,349.54060849901504,669.2410946567076) translate(0 14.222222222222223)"/><g filter="url(#w)"><path d="M524.36 674.6a6 6 0 0 1 6-6h472.97a6 6 0 0 1 6 6v82.27a6 6 0 0 1-6 6H530.36a6 6 0 0 1-6-6z" stroke="#ced4db" fill="#f2f3f5"/><use xlink:href="#n" transform="matrix(1,0,0,1,536.3603763052984,680.6139053254439) translate(26.703703703703695 26.65277777777778)"/><use xlink:href="#x" transform="matrix(1,0,0,1,536.3603763052984,680.6139053254439) translate(136.0246913580247 26.65277777777778)"/><use xlink:href="#y" transform="matrix(1,0,0,1,536.3603763052984,680.6139053254439) translate(227.320987654321 26.65277777777778)"/><use xlink:href="#z" transform="matrix(1,0,0,1,536.3603763052984,680.6139053254439) translate(347.9382716049383 26.65277777777778)"/><use xlink:href="#A" transform="matrix(1,0,0,1,536.3603763052984,680.6139053254439) translate(90.16049382716051 53.31944444444445)"/><use xlink:href="#B" transform="matrix(1,0,0,1,536.3603763052984,680.6139053254439) translate(145.5308641975309 53.31944444444445)"/><use xlink:href="#C" transform="matrix(1,0,0,1,536.3603763052984,680.6139053254439) translate(172.5679012345679 53.31944444444445)"/><use xlink:href="#D" transform="matrix(1,0,0,1,536.3603763052984,680.6139053254439) translate(211.95061728395063 53.31944444444445)"/><use xlink:href="#E" transform="matrix(1,0,0,1,536.3603763052984,680.6139053254439) translate(278.4320987654321 53.31944444444445)"/></g><g filter="url(#F)"><path d="M560.7 135.5a6 6 0 0 1 6-6H931a6 6 0 0 0 6-6v-8a2.3 2.3 0 0 1 4-1.54l28 31.08a6.67 6.67 0 0 1 0 8.92l-28 31.08a2.3 2.3 0 0 1-4-1.54v-8a6 6 0 0 0-6-6H566.7a6 6 0 0 1-6-6z" stroke="#3a414a" fill="#fff"/><use xlink:href="#G" transform="matrix(1,0,0,1,565.6920429719651,114.5) translate(70.88888888888889 40.0625)"/><use xlink:href="#H" transform="matrix(1,0,0,1,565.6920429719651,114.5) translate(162.88888888888889 40.0625)"/><use xlink:href="#I" transform="matrix(1,0,0,1,565.6920429719651,114.5) translate(253.11111111111111 40.0625)"/></g><g filter="url(#J)"><path d="M650.32 170.33a6 6 0 0 1 6-6h221.05a6 6 0 0 1 6 6v64.34c-38.92-11.75-63.16-11.75-77.84-11.75-23.3 0-54.3 11.75-77.6 11.75-14.45 0-38.92 0-77.6-11.75z" stroke="#3a414a" fill="#fff"/><use xlink:href="#K" transform="matrix(1,0,0,1,655.3243160596259,169.33333333333337) translate(0 28.25)"/><use xlink:href="#L" transform="matrix(1,0,0,1,655.3243160596259,169.33333333333337) translate(69.88888888888887 28.25)"/><use xlink:href="#M" transform="matrix(1,0,0,1,655.3243160596259,169.33333333333337) translate(92.11111111111109 28.25)"/><use xlink:href="#N" transform="matrix(1,0,0,1,655.3243160596259,169.33333333333337) translate(179.72222222222217 28.25)"/></g><g filter="url(#O)"><path d="M386.14 320a6 6 0 0 1 6-6h175.72a6 6 0 0 1 6 6v78a6 6 0 0 1-6 6H392.13a6 6 0 0 1-6-6z" stroke="#1071e5" fill="#1071e5"/><use xlink:href="#P" transform="matrix(1,0,0,1,391.1449612403101,319) translate(7.240740740740748 30.277777777777775)"/><use xlink:href="#Q" transform="matrix(1,0,0,1,391.1449612403101,319) translate(123.10493827160494 30.277777777777775)"/><use xlink:href="#R" transform="matrix(1,0,0,1,391.1449612403101,319) translate(10.172839506172863 56.94444444444444)"/><use xlink:href="#S" transform="matrix(1,0,0,1,391.1449612403101,319) translate(77.8888888888889 56.94444444444444)"/></g><path d="M548.97 575.63l3.48 7.4 3 7.13 2.62 7.06 2.32 7.14 2.05 7.37 1.8 7.7 1.56 8.16 1.3 8.75 1 9.53.66 10.5.22 10.7-2 .05-.22-10.66-.65-10.42-.98-9.45-1.28-8.68-1.54-8.08-1.8-7.62-2.02-7.28-2.3-7.07-2.6-6.98-2.96-7.05-3.44-7.33-3.24-6.18h2.25zM481.9 426.56l.98 9.45 1.28 8.7 1.54 8.07 1.8 7.62 2.02 7.27 2.3 7.07 2.6 6.98 2.95 7.04 3.45 7.33 4.18 7.97 5.52 9.55 17.57 27 5.35 8.38h-2.38l-4.67-7.28-17.58-27.06-5.57-9.62-4.22-8.06-3.48-7.4-3-7.12-2.62-7.06-2.32-7.15-2.05-7.36-1.8-7.7-1.56-8.18-1.3-8.76-1-9.53-.23-3.68 2-.13z" stroke="#6f7681" stroke-width=".05" fill="#6f7681"/><path d="M569 668.1h-2l-.02-1 2-.04z" fill="#6f7681"/><path d="M569.03 668.14h-2.05l-.03-1.06 2.05-.04zm-2.02-1l.02.95h1.96l-.03-1z" stroke="#6f7681" stroke-width=".05" fill="#6f7681"/><path d="M485.26 421.82l-9.26.34 4.12-14.43z" fill="#6f7681"/><path d="M486.67 422.77l-12 .44 5.33-18.7zm-9.33-1.66l6.5-.23-3.6-9.9z" stroke="#6f7681" stroke-width=".05" fill="#6f7681"/><use xlink:href="#p" transform="matrix(1,0,0,1,504.05506794019163,549.0015517980494) translate(0 14.222222222222223)"/><path d="M473.05 269.62l1.83 5.1 1.4 4.57 1.16 4.5.98 4.67.8 5.07.42 3.55-1 .1-.4-3.53-.8-5.02-.97-4.63-1.15-4.46-1.38-4.5-1.82-5.08-.18-.42h1.1zm-16.38-57.64l.44 6.5.66 5.6.8 5.02.97 4.64 1.15 4.45 1.38 4.5 1.82 5.08.2.44h-1.1l-.03-.08-1.83-5.1-1.4-4.57-1.16-4.5-.98-4.68-.8-5.08-.66-5.66-.45-6.53-.16-7.26 1-.02z" stroke="#3a414a" stroke-width=".05" fill="#3a414a"/><path d="M456.5 204.76l-1 .02v-.52h1z" fill="#3a414a"/><path d="M456.54 204.78l-1.05.03-.03-.57h1.05zm-1.02-.5l.02.48.95-.02-.02-.46z" stroke="#3a414a" stroke-width=".05" fill="#3a414a"/><path d="M479.92 311.88l-5.38-14 9.26-.48z" fill="#3a414a"/><path d="M480 313.5l-6.17-16.08 10.63-.56zm-4.75-15.16l4.58 11.93 3.3-12.34z" stroke="#3a414a" stroke-width=".05" fill="#3a414a"/><use xlink:href="#T" transform="matrix(1,0,0,1,440.3913938548816,248.2247906811938) translate(0 14.222222222222223)"/><path d="M202.5 468.9a6 6 0 0 1 6-6h221.04a6 6 0 0 1 6 6v69.34a6 6 0 0 1-6 6H208.5a6 6 0 0 1-6-6z" stroke="#4c535d" fill="#f2f3f5" filter="url(#U)"/><g filter="url(#U)"><path d="M190.83 456.9a6 6 0 0 1 6-6h221.04a6 6 0 0 1 6 6v69.34a6 6 0 0 1-6 6H196.83a6 6 0 0 1-6-6z" stroke="#4c535d" fill="#f2f3f5"/><use xlink:href="#V" transform="matrix(1,0,0,1,195.83071882827244,455.90927021696257) translate(50.48765432098766 26.777777777777775)"/><use xlink:href="#W" transform="matrix(1,0,0,1,195.83071882827244,455.90927021696257) translate(8.604938271604965 53.44444444444444)"/><use xlink:href="#X" transform="matrix(1,0,0,1,195.83071882827244,455.90927021696257) translate(117.92592592592592 53.44444444444444)"/></g><defs><path fill="#4c535d" d="M199 0l-22-63H83L61 0H9l90-248h61L250 0h-51zm-33-102l-36-108c-10 38-24 72-36 108h72" id="Y"/><path fill="#4c535d" d="M135-194c53 0 70 44 70 98 0 56-19 98-73 100-31 1-45-17-59-34 3 33 2 69 2 105H25l-1-265h48c2 10 0 23 3 31 11-24 29-35 60-35zM114-30c33 0 39-31 40-66 0-38-9-64-40-64-56 0-55 130 0 130" id="Z"/><path fill="#4c535d" d="M25 0v-261h50V0H25" id="aa"/><path fill="#4c535d" d="M25-224v-37h50v37H25zM25 0v-190h50V0H25" id="ab"/><path fill="#4c535d" d="M190-63c-7 42-38 67-86 67-59 0-84-38-90-98-12-110 154-137 174-36l-49 2c-2-19-15-32-35-32-30 0-35 28-38 64-6 74 65 87 74 30" id="ac"/><path fill="#4c535d" d="M133-34C117-15 103 5 69 4 32 3 11-16 11-54c-1-60 55-63 116-61 1-26-3-47-28-47-18 1-26 9-28 27l-52-2c7-38 36-58 82-57s74 22 75 68l1 82c-1 14 12 18 25 15v27c-30 8-71 5-69-32zm-48 3c29 0 43-24 42-57-32 0-66-3-65 30 0 17 8 27 23 27" id="ad"/><path fill="#4c535d" d="M115-3C79 11 28 4 28-45v-112H4v-33h27l15-45h31v45h36v33H77v99c-1 23 16 31 38 25v30" id="ae"/><path fill="#4c535d" d="M110-194c64 0 96 36 96 99 0 64-35 99-97 99-61 0-95-36-95-99 0-62 34-99 96-99zm-1 164c35 0 45-28 45-65 0-40-10-65-43-65-34 0-45 26-45 65 0 36 10 65 43 65" id="af"/><path fill="#4c535d" d="M135-194c87-1 58 113 63 194h-50c-7-57 23-157-34-157-59 0-34 97-39 157H25l-1-190h47c2 12-1 28 3 38 12-26 28-41 61-42" id="ag"/><g id="b"><use transform="matrix(0.06172839506172839,0,0,0.06172839506172839,0,0)" xlink:href="#Y"/><use transform="matrix(0.06172839506172839,0,0,0.06172839506172839,15.987654320987653,0)" xlink:href="#Z"/><use transform="matrix(0.06172839506172839,0,0,0.06172839506172839,29.50617283950617,0)" xlink:href="#Z"/><use transform="matrix(0.06172839506172839,0,0,0.06172839506172839,43.02469135802469,0)" xlink:href="#aa"/><use transform="matrix(0.06172839506172839,0,0,0.06172839506172839,49.19753086419753,0)" xlink:href="#ab"/><use transform="matrix(0.06172839506172839,0,0,0.06172839506172839,55.370370370370374,0)" xlink:href="#ac"/><use transform="matrix(0.06172839506172839,0,0,0.06172839506172839,67.71604938271605,0)" xlink:href="#ad"/><use transform="matrix(0.06172839506172839,0,0,0.06172839506172839,80.06172839506173,0)" xlink:href="#ae"/><use transform="matrix(0.06172839506172839,0,0,0.06172839506172839,87.40740740740742,0)" xlink:href="#ab"/><use transform="matrix(0.06172839506172839,0,0,0.06172839506172839,93.58024691358025,0)" xlink:href="#af"/><use transform="matrix(0.06172839506172839,0,0,0.06172839506172839,107.09876543209877,0)" xlink:href="#ag"/></g><path fill="#4c535d" d="M88-194c31-1 46 15 58 34l-1-101h50l1 261h-48c-2-10 0-23-3-31C134-8 116 4 84 4 32 4 16-41 15-95c0-56 19-97 73-99zm17 164c33 0 40-30 41-66 1-37-9-64-41-64s-38 30-39 65c0 43 13 65 39 65" id="ah"/><g id="c"><use transform="matrix(0.06172839506172839,0,0,0.06172839506172839,0,0)" xlink:href="#ad"/><use transform="matrix(0.06172839506172839,0,0,0.06172839506172839,12.345679012345679,0)" xlink:href="#ag"/><use transform="matrix(0.06172839506172839,0,0,0.06172839506172839,25.864197530864196,0)" xlink:href="#ah"/></g><path fill="#4c535d" d="M24 0v-248h52v208h133V0H24" id="ai"/><path fill="#4c535d" d="M135-194c52 0 70 43 70 98 0 56-19 99-73 100-30 1-46-15-58-35L72 0H24l1-261h50v104c11-23 29-37 60-37zM114-30c31 0 40-27 40-66 0-37-7-63-39-63s-41 28-41 65c0 36 8 64 40 64" id="aj"/><path fill="#4c535d" d="M135-150c-39-12-60 13-60 57V0H25l-1-190h47c2 13-1 29 3 40 6-28 27-53 61-41v41" id="ak"/><path fill="#4c535d" d="M185-48c-13 30-37 53-82 52C43 2 14-33 14-96s30-98 90-98c62 0 83 45 84 108H66c0 31 8 55 39 56 18 0 30-7 34-22zm-45-69c5-46-57-63-70-21-2 6-4 13-4 21h74" id="al"/><path fill="#4c535d" d="M137-138c1-29-70-34-71-4 15 46 118 7 119 86 1 83-164 76-172 9l43-7c4 19 20 25 44 25 33 8 57-30 24-41C81-84 22-81 20-136c-2-80 154-74 161-7" id="am"/><g id="d"><use transform="matrix(0.06172839506172839,0,0,0.06172839506172839,0,0)" xlink:href="#ai"/><use transform="matrix(0.06172839506172839,0,0,0.06172839506172839,13.518518518518517,0)" xlink:href="#ab"/><use transform="matrix(0.06172839506172839,0,0,0.06172839506172839,19.691358024691358,0)" xlink:href="#aj"/><use transform="matrix(0.06172839506172839,0,0,0.06172839506172839,33.20987654320987,0)" xlink:href="#ak"/><use transform="matrix(0.06172839506172839,0,0,0.06172839506172839,41.85185185185185,0)" xlink:href="#ad"/><use transform="matrix(0.06172839506172839,0,0,0.06172839506172839,54.197530864197525,0)" xlink:href="#ak"/><use transform="matrix(0.06172839506172839,0,0,0.06172839506172839,62.8395061728395,0)" xlink:href="#ab"/><use transform="matrix(0.06172839506172839,0,0,0.06172839506172839,69.01234567901234,0)" xlink:href="#al"/><use transform="matrix(0.06172839506172839,0,0,0.06172839506172839,81.35802469135803,0)" xlink:href="#am"/></g><path fill="#4c535d" d="M24 0v-248h52V0H24" id="an"/><path fill="#4c535d" d="M85 4C-2 5 27-109 22-190h50c7 57-23 150 33 157 60-5 35-97 40-157h50l1 190h-47c-2-12 1-28-3-38-12 25-28 42-61 42" id="ao"/><path fill="#4c535d" d="M220-157c-53 9-28 100-34 157h-49v-107c1-27-5-49-29-50C55-147 81-57 75 0H25l-1-190h47c2 12-1 28 3 38 10-53 101-56 108 0 13-22 24-43 59-42 82 1 51 116 57 194h-49v-107c-1-25-5-48-29-50" id="ap"/><g id="e"><use transform="matrix(0.06172839506172839,0,0,0.06172839506172839,0,0)" xlink:href="#an"/><use transform="matrix(0.06172839506172839,0,0,0.06172839506172839,6.172839506172839,0)" xlink:href="#ag"/><use transform="matrix(0.06172839506172839,0,0,0.06172839506172839,19.691358024691358,0)" xlink:href="#am"/><use transform="matrix(0.06172839506172839,0,0,0.06172839506172839,32.03703703703704,0)" xlink:href="#ae"/><use transform="matrix(0.06172839506172839,0,0,0.06172839506172839,39.382716049382715,0)" xlink:href="#ak"/><use transform="matrix(0.06172839506172839,0,0,0.06172839506172839,48.02469135802469,0)" xlink:href="#ao"/><use transform="matrix(0.06172839506172839,0,0,0.06172839506172839,61.54320987654321,0)" xlink:href="#ap"/><use transform="matrix(0.06172839506172839,0,0,0.06172839506172839,81.29629629629629,0)" xlink:href="#al"/><use transform="matrix(0.06172839506172839,0,0,0.06172839506172839,93.64197530864197,0)" xlink:href="#ag"/><use transform="matrix(0.06172839506172839,0,0,0.06172839506172839,107.1604938271605,0)" xlink:href="#ae"/><use transform="matrix(0.06172839506172839,0,0,0.06172839506172839,114.50617283950618,0)" xlink:href="#ad"/><use transform="matrix(0.06172839506172839,0,0,0.06172839506172839,126.85185185185188,0)" xlink:href="#ae"/><use transform="matrix(0.06172839506172839,0,0,0.06172839506172839,134.19753086419755,0)" xlink:href="#ab"/><use transform="matrix(0.06172839506172839,0,0,0.06172839506172839,140.37037037037038,0)" xlink:href="#af"/><use transform="matrix(0.06172839506172839,0,0,0.06172839506172839,153.88888888888889,0)" xlink:href="#ag"/></g><path fill="#4c535d" d="M169-182c-1-43-94-46-97-3 18 66 151 10 154 114 3 95-165 93-204 36-6-8-10-19-12-30l50-8c3 46 112 56 116 5-17-69-150-10-154-114-4-87 153-88 188-35 5 8 8 18 10 28" id="aq"/><path fill="#4c535d" d="M147 0L96-86 75-71V0H25v-261h50v150l67-79h53l-66 74L201 0h-54" id="ar"/><g id="f"><use transform="matrix(0.06172839506172839,0,0,0.06172839506172839,0,0)" xlink:href="#aq"/><use transform="matrix(0.06172839506172839,0,0,0.06172839506172839,14.814814814814813,0)" xlink:href="#ae"/><use transform="matrix(0.06172839506172839,0,0,0.06172839506172839,22.160493827160494,0)" xlink:href="#ad"/><use transform="matrix(0.06172839506172839,0,0,0.06172839506172839,34.50617283950617,0)" xlink:href="#ac"/><use transform="matrix(0.06172839506172839,0,0,0.06172839506172839,46.85185185185185,0)" xlink:href="#ar"/></g><filter id="a" filterUnits="objectBoundingBox" x="-.03" y="-.04" width="1.06" height="1.21"><feOffset result="offOut" in="SourceAlpha" dy="6"/><feGaussianBlur result="blurOut" in="offOut" stdDeviation="5"/><feColorMatrix result="colorOut" in="blurOut" values="0 0 0 0 0 0 0 0 0 0 0 0 0 0 0 0 0 0 0.5019607843137255 0"/><feBlend in="SourceGraphic" in2="colorOut"/></filter><path fill="#fff" d="M240-174c0 40-23 61-54 70L253 0h-59l-57-94H76V0H24v-248c93 4 217-23 216 74zM76-134c48-2 112 12 112-38 0-48-66-32-112-35v73" id="as"/><path fill="#fff" d="M185-48c-13 30-37 53-82 52C43 2 14-33 14-96s30-98 90-98c62 0 83 45 84 108H66c0 31 8 55 39 56 18 0 30-7 34-22zm-45-69c5-46-57-63-70-21-2 6-4 13-4 21h74" id="at"/><path fill="#fff" d="M137-138c1-29-70-34-71-4 15 46 118 7 119 86 1 83-164 76-172 9l43-7c4 19 20 25 44 25 33 8 57-30 24-41C81-84 22-81 20-136c-2-80 154-74 161-7" id="au"/><path fill="#fff" d="M110-194c64 0 96 36 96 99 0 64-35 99-97 99-61 0-95-36-95-99 0-62 34-99 96-99zm-1 164c35 0 45-28 45-65 0-40-10-65-43-65-34 0-45 26-45 65 0 36 10 65 43 65" id="av"/><path fill="#fff" d="M25 0v-261h50V0H25" id="aw"/><path fill="#fff" d="M128 0H69L1-190h53L99-40l48-150h52" id="ax"/><path fill="#fff" d="M88-194c31-1 46 15 58 34l-1-101h50l1 261h-48c-2-10 0-23-3-31C134-8 116 4 84 4 32 4 16-41 15-95c0-56 19-97 73-99zm17 164c33 0 40-30 41-66 1-37-9-64-41-64s-38 30-39 65c0 43 13 65 39 65" id="ay"/><g id="h"><use transform="matrix(0.061728395061728385,0,0,0.061728395061728385,0,0)" xlink:href="#as"/><use transform="matrix(0.061728395061728385,0,0,0.061728395061728385,15.987654320987652,0)" xlink:href="#at"/><use transform="matrix(0.061728395061728385,0,0,0.061728395061728385,28.33333333333333,0)" xlink:href="#au"/><use transform="matrix(0.061728395061728385,0,0,0.061728395061728385,40.679012345679006,0)" xlink:href="#av"/><use transform="matrix(0.061728395061728385,0,0,0.061728395061728385,54.19753086419752,0)" xlink:href="#aw"/><use transform="matrix(0.061728395061728385,0,0,0.061728395061728385,60.37037037037035,0)" xlink:href="#ax"/><use transform="matrix(0.061728395061728385,0,0,0.061728395061728385,72.71604938271602,0)" xlink:href="#at"/><use transform="matrix(0.061728395061728385,0,0,0.061728395061728385,85.06172839506169,0)" xlink:href="#ay"/></g><path fill="#fff" d="M136-208V0H84v-208H4v-40h212v40h-80" id="az"/><path fill="#fff" d="M220-157c-53 9-28 100-34 157h-49v-107c1-27-5-49-29-50C55-147 81-57 75 0H25l-1-190h47c2 12-1 28 3 38 10-53 101-56 108 0 13-22 24-43 59-42 82 1 51 116 57 194h-49v-107c-1-25-5-48-29-50" id="aA"/><path fill="#fff" d="M115-3C79 11 28 4 28-45v-112H4v-33h27l15-45h31v45h36v33H77v99c-1 23 16 31 38 25v30" id="aB"/><path fill="#fff" d="M135-150c-39-12-60 13-60 57V0H25l-1-190h47c2 13-1 29 3 40 6-28 27-53 61-41v41" id="aC"/><path fill="#fff" d="M123 10C108 53 80 86 19 72V37c35 8 53-11 59-39L3-190h52l48 148c12-52 28-100 44-148h51" id="aD"/><g id="i"><use transform="matrix(0.061728395061728385,0,0,0.061728395061728385,0,0)" xlink:href="#az"/><use transform="matrix(0.061728395061728385,0,0,0.061728395061728385,11.85185185185185,0)" xlink:href="#at"/><use transform="matrix(0.061728395061728385,0,0,0.061728395061728385,24.197530864197525,0)" xlink:href="#aw"/><use transform="matrix(0.061728395061728385,0,0,0.061728395061728385,30.370370370370363,0)" xlink:href="#at"/><use transform="matrix(0.061728395061728385,0,0,0.061728395061728385,42.71604938271604,0)" xlink:href="#aA"/><use transform="matrix(0.061728395061728385,0,0,0.061728395061728385,62.46913580246912,0)" xlink:href="#at"/><use transform="matrix(0.061728395061728385,0,0,0.061728395061728385,74.8148148148148,0)" xlink:href="#aB"/><use transform="matrix(0.061728395061728385,0,0,0.061728395061728385,82.16049382716048,0)" xlink:href="#aC"/><use transform="matrix(0.061728395061728385,0,0,0.061728395061728385,90.80246913580245,0)" xlink:href="#aD"/></g><path fill="#fff" d="M169-182c-1-43-94-46-97-3 18 66 151 10 154 114 3 95-165 93-204 36-6-8-10-19-12-30l50-8c3 46 112 56 116 5-17-69-150-10-154-114-4-87 153-88 188-35 5 8 8 18 10 28" id="aE"/><path fill="#fff" d="M190-63c-7 42-38 67-86 67-59 0-84-38-90-98-12-110 154-137 174-36l-49 2c-2-19-15-32-35-32-30 0-35 28-38 64-6 74 65 87 74 30" id="aF"/><path fill="#fff" d="M114-157C55-157 80-60 75 0H25v-261h50l-1 109c12-26 28-41 61-42 86-1 58 113 63 194h-50c-7-57 23-157-34-157" id="aG"/><path fill="#fff" d="M133-34C117-15 103 5 69 4 32 3 11-16 11-54c-1-60 55-63 116-61 1-26-3-47-28-47-18 1-26 9-28 27l-52-2c7-38 36-58 82-57s74 22 75 68l1 82c-1 14 12 18 25 15v27c-30 8-71 5-69-32zm-48 3c29 0 43-24 42-57-32 0-66-3-65 30 0 17 8 27 23 27" id="aH"/><g id="j"><use transform="matrix(0.061728395061728385,0,0,0.061728395061728385,0,0)" xlink:href="#aE"/><use transform="matrix(0.061728395061728385,0,0,0.061728395061728385,14.814814814814813,0)" xlink:href="#aF"/><use transform="matrix(0.061728395061728385,0,0,0.061728395061728385,27.16049382716049,0)" xlink:href="#aG"/><use transform="matrix(0.061728395061728385,0,0,0.061728395061728385,40.679012345679006,0)" xlink:href="#at"/><use transform="matrix(0.061728395061728385,0,0,0.061728395061728385,53.02469135802468,0)" xlink:href="#aA"/><use transform="matrix(0.061728395061728385,0,0,0.061728395061728385,72.77777777777777,0)" xlink:href="#aH"/></g><path fill="#fff" d="M87 75C49 33 22-17 22-94c0-76 28-126 65-167h31c-38 41-64 92-64 168S80 34 118 75H87" id="aI"/><path fill="#fff" d="M115-194c55 1 70 41 70 98S169 2 115 4C84 4 66-9 55-30l1 105H24l-1-265h31l2 30c10-21 28-34 59-34zm-8 174c40 0 45-34 45-75s-6-73-45-74c-42 0-51 32-51 76 0 43 10 73 51 73" id="aJ"/><path fill="#fff" d="M84 4C-5 8 30-112 23-190h32v120c0 31 7 50 39 49 72-2 45-101 50-169h31l1 190h-30c-1-10 1-25-2-33-11 22-28 36-60 37" id="aK"/><path fill="#fff" d="M115-194c53 0 69 39 70 98 0 66-23 100-70 100C84 3 66-7 56-30L54 0H23l1-261h32v101c10-23 28-34 59-34zm-8 174c40 0 45-34 45-75 0-40-5-75-45-74-42 0-51 32-51 76 0 43 10 73 51 73" id="aL"/><path fill="#fff" d="M24 0v-261h32V0H24" id="aM"/><path fill="#fff" d="M24-231v-30h32v30H24zM24 0v-190h32V0H24" id="aN"/><path fill="#fff" d="M135-143c-3-34-86-38-87 0 15 53 115 12 119 90S17 21 10-45l28-5c4 36 97 45 98 0-10-56-113-15-118-90-4-57 82-63 122-42 12 7 21 19 24 35" id="aO"/><path fill="#fff" d="M106-169C34-169 62-67 57 0H25v-261h32l-1 103c12-21 28-36 61-36 89 0 53 116 60 194h-32v-121c2-32-8-49-39-48" id="aP"/><path fill="#fff" d="M100-194c63 0 86 42 84 106H49c0 40 14 67 53 68 26 1 43-12 49-29l28 8c-11 28-37 45-77 45C44 4 14-33 15-96c1-61 26-98 85-98zm52 81c6-60-76-77-97-28-3 7-6 17-6 28h103" id="aQ"/><path fill="#fff" d="M85-194c31 0 48 13 60 33l-1-100h32l1 261h-30c-2-10 0-23-3-31C134-8 116 4 85 4 32 4 16-35 15-94c0-66 23-100 70-100zm9 24c-40 0-46 34-46 75 0 40 6 74 45 74 42 0 51-32 51-76 0-42-9-74-50-73" id="aR"/><g id="k"><use transform="matrix(0.061728395061728385,0,0,0.061728395061728385,0,0)" xlink:href="#aI"/><use transform="matrix(0.061728395061728385,0,0,0.061728395061728385,7.345679012345678,0)" xlink:href="#aJ"/><use transform="matrix(0.061728395061728385,0,0,0.061728395061728385,19.691358024691354,0)" xlink:href="#aK"/><use transform="matrix(0.061728395061728385,0,0,0.061728395061728385,32.03703703703703,0)" xlink:href="#aL"/><use transform="matrix(0.061728395061728385,0,0,0.061728395061728385,44.38271604938271,0)" xlink:href="#aM"/><use transform="matrix(0.061728395061728385,0,0,0.061728395061728385,49.25925925925925,0)" xlink:href="#aN"/><use transform="matrix(0.061728395061728385,0,0,0.061728395061728385,54.1358024691358,0)" xlink:href="#aO"/><use transform="matrix(0.061728395061728385,0,0,0.061728395061728385,65.24691358024691,0)" xlink:href="#aP"/><use transform="matrix(0.061728395061728385,0,0,0.061728395061728385,77.59259259259258,0)" xlink:href="#aQ"/><use transform="matrix(0.061728395061728385,0,0,0.061728395061728385,89.93827160493825,0)" xlink:href="#aR"/></g><path fill="#fff" d="M210-169c-67 3-38 105-44 169h-31v-121c0-29-5-50-35-48C34-165 62-65 56 0H25l-1-190h30c1 10-1 24 2 32 10-44 99-50 107 0 11-21 27-35 58-36 85-2 47 119 55 194h-31v-121c0-29-5-49-35-48" id="aS"/><path fill="#fff" d="M141-36C126-15 110 5 73 4 37 3 15-17 15-53c-1-64 63-63 125-63 3-35-9-54-41-54-24 1-41 7-42 31l-33-3c5-37 33-52 76-52 45 0 72 20 72 64v82c-1 20 7 32 28 27v20c-31 9-61-2-59-35zM48-53c0 20 12 33 32 33 41-3 63-29 60-74-43 2-92-5-92 41" id="aT"/><path fill="#fff" d="M117-194c89-4 53 116 60 194h-32v-121c0-31-8-49-39-48C34-167 62-67 57 0H25l-1-190h30c1 10-1 24 2 32 11-22 29-35 61-36" id="aU"/><path fill="#fff" d="M101-234c-31-9-42 10-38 44h38v23H63V0H32v-167H5v-23h27c-7-52 17-82 69-68v24" id="aV"/><path fill="#fff" d="M59-47c-2 24 18 29 38 22v24C64 9 27 4 27-40v-127H5v-23h24l9-43h21v43h35v23H59v120" id="aW"/><path fill="#fff" d="M33-261c38 41 65 92 65 168S71 34 33 75H2C39 34 66-17 66-93S39-220 2-261h31" id="aX"/><g id="l"><use transform="matrix(0.061728395061728385,0,0,0.061728395061728385,0,0)" xlink:href="#aS"/><use transform="matrix(0.061728395061728385,0,0,0.061728395061728385,18.456790123456788,0)" xlink:href="#aT"/><use transform="matrix(0.061728395061728385,0,0,0.061728395061728385,30.802469135802465,0)" xlink:href="#aU"/><use transform="matrix(0.061728395061728385,0,0,0.061728395061728385,43.14814814814814,0)" xlink:href="#aN"/><use transform="matrix(0.061728395061728385,0,0,0.061728395061728385,48.02469135802468,0)" xlink:href="#aV"/><use transform="matrix(0.061728395061728385,0,0,0.061728395061728385,54.19753086419752,0)" xlink:href="#aQ"/><use transform="matrix(0.061728395061728385,0,0,0.061728395061728385,66.54320987654319,0)" xlink:href="#aO"/><use transform="matrix(0.061728395061728385,0,0,0.061728395061728385,77.6543209876543,0)" xlink:href="#aW"/><use transform="matrix(0.061728395061728385,0,0,0.061728395061728385,83.82716049382714,0)" xlink:href="#aX"/></g><filter id="g" filterUnits="objectBoundingBox" x="-.03" y="-.05" width="1.06" height="1.25"><feOffset result="offOut" in="SourceAlpha" dy="6"/><feGaussianBlur result="blurOut" in="offOut" stdDeviation="5"/><feColorMatrix result="colorOut" in="blurOut" values="0 0 0 0 0 0 0 0 0 0 0 0 0 0 0 0 0 0 0.5019607843137255 0"/><feBlend in="SourceGraphic" in2="colorOut"/></filter><path fill="#4c535d" d="M136-208V0H84v-208H4v-40h212v40h-80" id="aY"/><path fill="#4c535d" d="M123 10C108 53 80 86 19 72V37c35 8 53-11 59-39L3-190h52l48 148c12-52 28-100 44-148h51" id="aZ"/><g id="n"><use transform="matrix(0.06172839506172839,0,0,0.06172839506172839,0,0)" xlink:href="#aY"/><use transform="matrix(0.06172839506172839,0,0,0.06172839506172839,11.851851851851851,0)" xlink:href="#al"/><use transform="matrix(0.06172839506172839,0,0,0.06172839506172839,24.19753086419753,0)" xlink:href="#aa"/><use transform="matrix(0.06172839506172839,0,0,0.06172839506172839,30.37037037037037,0)" xlink:href="#al"/><use transform="matrix(0.06172839506172839,0,0,0.06172839506172839,42.71604938271605,0)" xlink:href="#ap"/><use transform="matrix(0.06172839506172839,0,0,0.06172839506172839,62.46913580246914,0)" xlink:href="#al"/><use transform="matrix(0.06172839506172839,0,0,0.06172839506172839,74.81481481481482,0)" xlink:href="#ae"/><use transform="matrix(0.06172839506172839,0,0,0.06172839506172839,82.16049382716051,0)" xlink:href="#ak"/><use transform="matrix(0.06172839506172839,0,0,0.06172839506172839,90.80246913580248,0)" xlink:href="#aZ"/></g><path fill="#4c535d" d="M182-130c37 4 62 22 62 59C244 23 116-4 24 0v-248c84 5 203-23 205 63 0 31-19 50-47 55zM76-148c40-3 101 13 101-30 0-44-60-28-101-31v61zm0 110c48-3 116 14 116-37 0-48-69-32-116-35v72" id="ba"/><g id="o"><use transform="matrix(0.06172839506172839,0,0,0.06172839506172839,0,0)" xlink:href="#ba"/><use transform="matrix(0.06172839506172839,0,0,0.06172839506172839,15.987654320987653,0)" xlink:href="#ad"/><use transform="matrix(0.06172839506172839,0,0,0.06172839506172839,28.333333333333332,0)" xlink:href="#ac"/><use transform="matrix(0.06172839506172839,0,0,0.06172839506172839,40.67901234567901,0)" xlink:href="#ar"/><use transform="matrix(0.06172839506172839,0,0,0.06172839506172839,53.02469135802469,0)" xlink:href="#al"/><use transform="matrix(0.06172839506172839,0,0,0.06172839506172839,65.37037037037037,0)" xlink:href="#ag"/><use transform="matrix(0.06172839506172839,0,0,0.06172839506172839,78.88888888888889,0)" xlink:href="#ah"/></g><filter id="m" filterUnits="objectBoundingBox" x="-.03" y="-.04" width="1.06" height="1.21"><feOffset result="offOut" in="SourceAlpha" dy="6"/><feGaussianBlur result="blurOut" in="offOut" stdDeviation="5"/><feColorMatrix result="colorOut" in="blurOut" values="0 0 0 0 0 0 0 0 0 0 0 0 0 0 0 0 0 0 0.5019607843137255 0"/><feBlend in="SourceGraphic" in2="colorOut"/></filter><g id="p"><use transform="matrix(0.04938271604938272,0,0,0.04938271604938272,0,0)" xlink:href="#Z"/><use transform="matrix(0.04938271604938272,0,0,0.04938271604938272,10.814814814814815,0)" xlink:href="#ak"/><use transform="matrix(0.04938271604938272,0,0,0.04938271604938272,17.728395061728396,0)" xlink:href="#af"/><use transform="matrix(0.04938271604938272,0,0,0.04938271604938272,28.543209876543205,0)" xlink:href="#ah"/><use transform="matrix(0.04938271604938272,0,0,0.04938271604938272,39.358024691358025,0)" xlink:href="#ao"/><use transform="matrix(0.04938271604938272,0,0,0.04938271604938272,50.17283950617284,0)" xlink:href="#ac"/><use transform="matrix(0.04938271604938272,0,0,0.04938271604938272,60.04938271604939,0)" xlink:href="#al"/></g><path fill="#4c535d" d="M121-226c-27-7-43 5-38 36h38v33H83V0H34v-157H6v-33h28c-9-59 32-81 87-68v32" id="bb"/><g id="q"><use transform="matrix(0.04938271604938272,0,0,0.04938271604938272,0,0)" xlink:href="#ak"/><use transform="matrix(0.04938271604938272,0,0,0.04938271604938272,6.913580246913581,0)" xlink:href="#al"/><use transform="matrix(0.04938271604938272,0,0,0.04938271604938272,16.790123456790127,0)" xlink:href="#bb"/><use transform="matrix(0.04938271604938272,0,0,0.04938271604938272,22.66666666666667,0)" xlink:href="#al"/><use transform="matrix(0.04938271604938272,0,0,0.04938271604938272,32.543209876543216,0)" xlink:href="#ak"/></g><g id="r"><use transform="matrix(0.04938271604938272,0,0,0.04938271604938272,0,0)" xlink:href="#ae"/><use transform="matrix(0.04938271604938272,0,0,0.04938271604938272,5.8765432098765435,0)" xlink:href="#af"/></g><path fill="#4c535d" d="M12 0v-35l95-120H19v-35h142v35L67-36h103V0H12" id="bc"/><g id="s"><use transform="matrix(0.04938271604938272,0,0,0.04938271604938272,0,0)" xlink:href="#ao"/><use transform="matrix(0.04938271604938272,0,0,0.04938271604938272,10.814814814814815,0)" xlink:href="#ae"/><use transform="matrix(0.04938271604938272,0,0,0.04938271604938272,16.691358024691358,0)" xlink:href="#ab"/><use transform="matrix(0.04938271604938272,0,0,0.04938271604938272,21.62962962962963,0)" xlink:href="#aa"/><use transform="matrix(0.04938271604938272,0,0,0.04938271604938272,26.567901234567902,0)" xlink:href="#ab"/><use transform="matrix(0.04938271604938272,0,0,0.04938271604938272,31.506172839506174,0)" xlink:href="#bc"/><use transform="matrix(0.04938271604938272,0,0,0.04938271604938272,40.39506172839506,0)" xlink:href="#al"/></g><g id="t"><use transform="matrix(0.04938271604938272,0,0,0.04938271604938272,0,0)" xlink:href="#ah"/><use transform="matrix(0.04938271604938272,0,0,0.04938271604938272,10.814814814814815,0)" xlink:href="#al"/><use transform="matrix(0.04938271604938272,0,0,0.04938271604938272,20.69135802469136,0)" xlink:href="#bb"/><use transform="matrix(0.04938271604938272,0,0,0.04938271604938272,26.567901234567902,0)" xlink:href="#ab"/><use transform="matrix(0.04938271604938272,0,0,0.04938271604938272,31.506172839506174,0)" xlink:href="#ag"/><use transform="matrix(0.04938271604938272,0,0,0.04938271604938272,42.320987654320994,0)" xlink:href="#al"/></g><path fill="#4c535d" d="M231 0h-52l-39-155L100 0H48L-1-190h46L77-45c9-52 24-97 36-145h53l37 145 32-145h46" id="bd"/><path fill="#4c535d" d="M114-157C55-157 80-60 75 0H25v-261h50l-1 109c12-26 28-41 61-42 86-1 58 113 63 194h-50c-7-57 23-157-34-157" id="be"/><g id="u"><use transform="matrix(0.04938271604938272,0,0,0.04938271604938272,0,0)" xlink:href="#bd"/><use transform="matrix(0.04938271604938272,0,0,0.04938271604938272,13.827160493827162,0)" xlink:href="#ab"/><use transform="matrix(0.04938271604938272,0,0,0.04938271604938272,18.765432098765434,0)" xlink:href="#ae"/><use transform="matrix(0.04938271604938272,0,0,0.04938271604938272,24.641975308641978,0)" xlink:href="#be"/></g><path fill="#333" d="M85 4C-2 5 27-109 22-190h50c7 57-23 150 33 157 60-5 35-97 40-157h50l1 190h-47c-2-12 1-28-3-38-12 25-28 42-61 42" id="bf"/><path fill="#333" d="M115-3C79 11 28 4 28-45v-112H4v-33h27l15-45h31v45h36v33H77v99c-1 23 16 31 38 25v30" id="bg"/><path fill="#333" d="M25-224v-37h50v37H25zM25 0v-190h50V0H25" id="bh"/><path fill="#333" d="M25 0v-261h50V0H25" id="bi"/><path fill="#333" d="M12 0v-35l95-120H19v-35h142v35L67-36h103V0H12" id="bj"/><path fill="#333" d="M185-48c-13 30-37 53-82 52C43 2 14-33 14-96s30-98 90-98c62 0 83 45 84 108H66c0 31 8 55 39 56 18 0 30-7 34-22zm-45-69c5-46-57-63-70-21-2 6-4 13-4 21h74" id="bk"/><g id="v"><use transform="matrix(0.04938271604938272,0,0,0.04938271604938272,0,0)" xlink:href="#bf"/><use transform="matrix(0.04938271604938272,0,0,0.04938271604938272,10.814814814814815,0)" xlink:href="#bg"/><use transform="matrix(0.04938271604938272,0,0,0.04938271604938272,16.691358024691358,0)" xlink:href="#bh"/><use transform="matrix(0.04938271604938272,0,0,0.04938271604938272,21.62962962962963,0)" xlink:href="#bi"/><use transform="matrix(0.04938271604938272,0,0,0.04938271604938272,26.567901234567902,0)" xlink:href="#bh"/><use transform="matrix(0.04938271604938272,0,0,0.04938271604938272,31.506172839506174,0)" xlink:href="#bj"/><use transform="matrix(0.04938271604938272,0,0,0.04938271604938272,40.39506172839506,0)" xlink:href="#bk"/></g><g id="x"><use transform="matrix(0.06172839506172839,0,0,0.06172839506172839,0,0)" xlink:href="#aq"/><use transform="matrix(0.06172839506172839,0,0,0.06172839506172839,14.814814814814813,0)" xlink:href="#ac"/><use transform="matrix(0.06172839506172839,0,0,0.06172839506172839,27.160493827160494,0)" xlink:href="#be"/><use transform="matrix(0.06172839506172839,0,0,0.06172839506172839,40.67901234567901,0)" xlink:href="#al"/><use transform="matrix(0.06172839506172839,0,0,0.06172839506172839,53.02469135802469,0)" xlink:href="#ap"/><use transform="matrix(0.06172839506172839,0,0,0.06172839506172839,72.77777777777777,0)" xlink:href="#ad"/></g><path fill="#4c535d" d="M240-174c0 40-23 61-54 70L253 0h-59l-57-94H76V0H24v-248c93 4 217-23 216 74zM76-134c48-2 112 12 112-38 0-48-66-32-112-35v73" id="bl"/><g id="y"><use transform="matrix(0.06172839506172839,0,0,0.06172839506172839,0,0)" xlink:href="#bl"/><use transform="matrix(0.06172839506172839,0,0,0.06172839506172839,15.987654320987653,0)" xlink:href="#al"/><use transform="matrix(0.06172839506172839,0,0,0.06172839506172839,28.333333333333332,0)" xlink:href="#am"/><use transform="matrix(0.06172839506172839,0,0,0.06172839506172839,40.67901234567901,0)" xlink:href="#af"/><use transform="matrix(0.06172839506172839,0,0,0.06172839506172839,54.19753086419753,0)" xlink:href="#aa"/><use transform="matrix(0.06172839506172839,0,0,0.06172839506172839,60.370370370370374,0)" xlink:href="#ao"/><use transform="matrix(0.06172839506172839,0,0,0.06172839506172839,73.88888888888889,0)" xlink:href="#ae"/><use transform="matrix(0.06172839506172839,0,0,0.06172839506172839,81.23456790123457,0)" xlink:href="#ab"/><use transform="matrix(0.06172839506172839,0,0,0.06172839506172839,87.4074074074074,0)" xlink:href="#af"/><use transform="matrix(0.06172839506172839,0,0,0.06172839506172839,100.92592592592592,0)" xlink:href="#ag"/></g><path fill="#4c535d" d="M24-248c93 1 206-16 204 79-1 75-69 88-152 82V0H24v-248zm52 121c47 0 100 7 100-41 0-47-54-39-100-39v80" id="bm"/><g id="z"><use transform="matrix(0.06172839506172839,0,0,0.06172839506172839,0,0)" xlink:href="#bm"/><use transform="matrix(0.06172839506172839,0,0,0.06172839506172839,14.814814814814813,0)" xlink:href="#ak"/><use transform="matrix(0.06172839506172839,0,0,0.06172839506172839,23.456790123456788,0)" xlink:href="#af"/><use transform="matrix(0.06172839506172839,0,0,0.06172839506172839,36.9753086419753,0)" xlink:href="#ac"/><use transform="matrix(0.06172839506172839,0,0,0.06172839506172839,49.32098765432098,0)" xlink:href="#al"/><use transform="matrix(0.06172839506172839,0,0,0.06172839506172839,61.66666666666666,0)" xlink:href="#am"/><use transform="matrix(0.06172839506172839,0,0,0.06172839506172839,74.01234567901234,0)" xlink:href="#am"/></g><path fill="#4c535d" d="M67-93c0 74 22 123 53 168H70C40 30 18-18 18-93s22-123 52-168h50c-32 44-53 94-53 168" id="bn"/><g id="A"><use transform="matrix(0.06172839506172839,0,0,0.06172839506172839,0,0)" xlink:href="#bn"/><use transform="matrix(0.06172839506172839,0,0,0.06172839506172839,7.345679012345679,0)" xlink:href="#Z"/><use transform="matrix(0.06172839506172839,0,0,0.06172839506172839,20.864197530864196,0)" xlink:href="#ad"/><use transform="matrix(0.06172839506172839,0,0,0.06172839506172839,33.20987654320987,0)" xlink:href="#ak"/><use transform="matrix(0.06172839506172839,0,0,0.06172839506172839,41.85185185185185,0)" xlink:href="#ae"/></g><g id="B"><use transform="matrix(0.06172839506172839,0,0,0.06172839506172839,0,0)" xlink:href="#af"/><use transform="matrix(0.06172839506172839,0,0,0.06172839506172839,13.518518518518517,0)" xlink:href="#bb"/></g><g id="C"><use transform="matrix(0.06172839506172839,0,0,0.06172839506172839,0,0)" xlink:href="#ae"/><use transform="matrix(0.06172839506172839,0,0,0.06172839506172839,7.345679012345679,0)" xlink:href="#be"/><use transform="matrix(0.06172839506172839,0,0,0.06172839506172839,20.864197530864196,0)" xlink:href="#al"/></g><path fill="#4c535d" d="M67-125c0 53 21 87 73 88 37 1 54-22 65-47l45 17C233-25 199 4 140 4 58 4 20-42 15-125 8-235 124-281 211-232c18 10 29 29 36 50l-46 12c-8-25-30-41-62-41-52 0-71 34-72 86" id="bo"/><path fill="#4c535d" d="M4 7l51-268h42L46 7H4" id="bp"/><path fill="#4c535d" d="M24-248c120-7 223 5 221 122C244-46 201 0 124 0H24v-248zM76-40c74 7 117-18 117-86 0-67-45-88-117-82v168" id="bq"/><g id="D"><use transform="matrix(0.06172839506172839,0,0,0.06172839506172839,0,0)" xlink:href="#bo"/><use transform="matrix(0.06172839506172839,0,0,0.06172839506172839,15.987654320987653,0)" xlink:href="#an"/><use transform="matrix(0.06172839506172839,0,0,0.06172839506172839,22.160493827160494,0)" xlink:href="#bp"/><use transform="matrix(0.06172839506172839,0,0,0.06172839506172839,28.333333333333332,0)" xlink:href="#bo"/><use transform="matrix(0.06172839506172839,0,0,0.06172839506172839,44.32098765432099,0)" xlink:href="#bq"/></g><path fill="#4c535d" d="M102-93c0 74-22 123-52 168H0C30 29 54-18 53-93c0-74-22-123-53-168h50c30 45 52 94 52 168" id="br"/><g id="E"><use transform="matrix(0.06172839506172839,0,0,0.06172839506172839,0,0)" xlink:href="#bm"/><use transform="matrix(0.06172839506172839,0,0,0.06172839506172839,14.814814814814813,0)" xlink:href="#ab"/><use transform="matrix(0.06172839506172839,0,0,0.06172839506172839,20.98765432098765,0)" xlink:href="#Z"/><use transform="matrix(0.06172839506172839,0,0,0.06172839506172839,34.50617283950617,0)" xlink:href="#al"/><use transform="matrix(0.06172839506172839,0,0,0.06172839506172839,46.85185185185185,0)" xlink:href="#aa"/><use transform="matrix(0.06172839506172839,0,0,0.06172839506172839,53.02469135802469,0)" xlink:href="#ab"/><use transform="matrix(0.06172839506172839,0,0,0.06172839506172839,59.19753086419753,0)" xlink:href="#ag"/><use transform="matrix(0.06172839506172839,0,0,0.06172839506172839,72.71604938271605,0)" xlink:href="#al"/><use transform="matrix(0.06172839506172839,0,0,0.06172839506172839,85.06172839506173,0)" xlink:href="#br"/></g><filter id="w" filterUnits="objectBoundingBox" x="-.02" y="-.04" width="1.04" height="1.21"><feOffset result="offOut" in="SourceAlpha" dy="6"/><feGaussianBlur result="blurOut" in="offOut" stdDeviation="5"/><feColorMatrix result="colorOut" in="blurOut" values="0 0 0 0 0 0 0 0 0 0 0 0 0 0 0 0 0 0 0.5019607843137255 0"/><feBlend in="SourceGraphic" in2="colorOut"/></filter><path fill="#4c535d" d="M127-220V0H93v-220H8v-28h204v28h-85" id="bs"/><path fill="#4c535d" d="M100-194c63 0 86 42 84 106H49c0 40 14 67 53 68 26 1 43-12 49-29l28 8c-11 28-37 45-77 45C44 4 14-33 15-96c1-61 26-98 85-98zm52 81c6-60-76-77-97-28-3 7-6 17-6 28h103" id="bt"/><path fill="#4c535d" d="M24 0v-261h32V0H24" id="bu"/><path fill="#4c535d" d="M210-169c-67 3-38 105-44 169h-31v-121c0-29-5-50-35-48C34-165 62-65 56 0H25l-1-190h30c1 10-1 24 2 32 10-44 99-50 107 0 11-21 27-35 58-36 85-2 47 119 55 194h-31v-121c0-29-5-49-35-48" id="bv"/><path fill="#4c535d" d="M59-47c-2 24 18 29 38 22v24C64 9 27 4 27-40v-127H5v-23h24l9-43h21v43h35v23H59v120" id="bw"/><path fill="#4c535d" d="M114-163C36-179 61-72 57 0H25l-1-190h30c1 12-1 29 2 39 6-27 23-49 58-41v29" id="bx"/><path fill="#4c535d" d="M179-190L93 31C79 59 56 82 12 73V49c39 6 53-20 64-50L1-190h34L92-34l54-156h33" id="by"/><g id="G"><use transform="matrix(0.055555555555555546,0,0,0.055555555555555546,0,0)" xlink:href="#bs"/><use transform="matrix(0.055555555555555546,0,0,0.055555555555555546,9.944444444444443,0)" xlink:href="#bt"/><use transform="matrix(0.055555555555555546,0,0,0.055555555555555546,21.05555555555555,0)" xlink:href="#bu"/><use transform="matrix(0.055555555555555546,0,0,0.055555555555555546,25.44444444444444,0)" xlink:href="#bt"/><use transform="matrix(0.055555555555555546,0,0,0.055555555555555546,36.55555555555555,0)" xlink:href="#bv"/><use transform="matrix(0.055555555555555546,0,0,0.055555555555555546,53.16666666666666,0)" xlink:href="#bt"/><use transform="matrix(0.055555555555555546,0,0,0.055555555555555546,64.27777777777777,0)" xlink:href="#bw"/><use transform="matrix(0.055555555555555546,0,0,0.055555555555555546,69.83333333333333,0)" xlink:href="#bx"/><use transform="matrix(0.055555555555555546,0,0,0.055555555555555546,76.44444444444444,0)" xlink:href="#by"/></g><path fill="#4c535d" d="M141-36C126-15 110 5 73 4 37 3 15-17 15-53c-1-64 63-63 125-63 3-35-9-54-41-54-24 1-41 7-42 31l-33-3c5-37 33-52 76-52 45 0 72 20 72 64v82c-1 20 7 32 28 27v20c-31 9-61-2-59-35zM48-53c0 20 12 33 32 33 41-3 63-29 60-74-43 2-92-5-92 41" id="bz"/><path fill="#4c535d" d="M117-194c89-4 53 116 60 194h-32v-121c0-31-8-49-39-48C34-167 62-67 57 0H25l-1-190h30c1 10-1 24 2 32 11-22 29-35 61-36" id="bA"/><path fill="#4c535d" d="M135-143c-3-34-86-38-87 0 15 53 115 12 119 90S17 21 10-45l28-5c4 36 97 45 98 0-10-56-113-15-118-90-4-57 82-63 122-42 12 7 21 19 24 35" id="bB"/><path fill="#4c535d" d="M115-194c55 1 70 41 70 98S169 2 115 4C84 4 66-9 55-30l1 105H24l-1-265h31l2 30c10-21 28-34 59-34zm-8 174c40 0 45-34 45-75s-6-73-45-74c-42 0-51 32-51 76 0 43 10 73 51 73" id="bC"/><path fill="#4c535d" d="M100-194c62-1 85 37 85 99 1 63-27 99-86 99S16-35 15-95c0-66 28-99 85-99zM99-20c44 1 53-31 53-75 0-43-8-75-51-75s-53 32-53 75 10 74 51 75" id="bD"/><g id="H"><use transform="matrix(0.055555555555555546,0,0,0.055555555555555546,0,0)" xlink:href="#bs"/><use transform="matrix(0.055555555555555546,0,0,0.055555555555555546,11.444444444444443,0)" xlink:href="#bx"/><use transform="matrix(0.055555555555555546,0,0,0.055555555555555546,18.055555555555554,0)" xlink:href="#bz"/><use transform="matrix(0.055555555555555546,0,0,0.055555555555555546,29.16666666666666,0)" xlink:href="#bA"/><use transform="matrix(0.055555555555555546,0,0,0.055555555555555546,40.27777777777777,0)" xlink:href="#bB"/><use transform="matrix(0.055555555555555546,0,0,0.055555555555555546,50.27777777777777,0)" xlink:href="#bC"/><use transform="matrix(0.055555555555555546,0,0,0.055555555555555546,61.38888888888888,0)" xlink:href="#bD"/><use transform="matrix(0.055555555555555546,0,0,0.055555555555555546,72.49999999999999,0)" xlink:href="#bx"/><use transform="matrix(0.055555555555555546,0,0,0.055555555555555546,79.1111111111111,0)" xlink:href="#bw"/></g><path fill="#4c535d" d="M96-169c-40 0-48 33-48 73s9 75 48 75c24 0 41-14 43-38l32 2c-6 37-31 61-74 61-59 0-76-41-82-99-10-93 101-131 147-64 4 7 5 14 7 22l-32 3c-4-21-16-35-41-35" id="bE"/><g id="I"><use transform="matrix(0.055555555555555546,0,0,0.055555555555555546,0,0)" xlink:href="#bC"/><use transform="matrix(0.055555555555555546,0,0,0.055555555555555546,11.111111111111109,0)" xlink:href="#bx"/><use transform="matrix(0.055555555555555546,0,0,0.055555555555555546,17.722222222222218,0)" xlink:href="#bD"/><use transform="matrix(0.055555555555555546,0,0,0.055555555555555546,28.83333333333333,0)" xlink:href="#bw"/><use transform="matrix(0.055555555555555546,0,0,0.055555555555555546,34.388888888888886,0)" xlink:href="#bD"/><use transform="matrix(0.055555555555555546,0,0,0.055555555555555546,45.49999999999999,0)" xlink:href="#bE"/><use transform="matrix(0.055555555555555546,0,0,0.055555555555555546,55.49999999999999,0)" xlink:href="#bD"/><use transform="matrix(0.055555555555555546,0,0,0.055555555555555546,66.6111111111111,0)" xlink:href="#bu"/></g><filter id="F" filterUnits="objectBoundingBox" x="-.02" y="-.05" width="1.05" height="1.25"><feOffset result="offOut" in="SourceAlpha" dy="6"/><feGaussianBlur result="blurOut" in="offOut" stdDeviation="5"/><feColorMatrix result="colorOut" in="blurOut" values="0 0 0 0 0 0 0 0 0 0 0 0 0 0 0 0 0 0 0.5019607843137255 0"/><feBlend in="SourceGraphic" in2="colorOut"/></filter><path fill="#4c535d" d="M185-189c-5-48-123-54-124 2 14 75 158 14 163 119 3 78-121 87-175 55-17-10-28-26-33-46l33-7c5 56 141 63 141-1 0-78-155-14-162-118-5-82 145-84 179-34 5 7 8 16 11 25" id="bF"/><g id="K"><use transform="matrix(0.055555555555555546,0,0,0.055555555555555546,0,0)" xlink:href="#bF"/><use transform="matrix(0.055555555555555546,0,0,0.055555555555555546,13.33333333333333,0)" xlink:href="#bw"/><use transform="matrix(0.055555555555555546,0,0,0.055555555555555546,18.888888888888886,0)" xlink:href="#bx"/><use transform="matrix(0.055555555555555546,0,0,0.055555555555555546,25.499999999999996,0)" xlink:href="#bt"/><use transform="matrix(0.055555555555555546,0,0,0.055555555555555546,36.61111111111111,0)" xlink:href="#bz"/><use transform="matrix(0.055555555555555546,0,0,0.055555555555555546,47.722222222222214,0)" xlink:href="#bv"/></g><path fill="#4c535d" d="M101-234c-31-9-42 10-38 44h38v23H63V0H32v-167H5v-23h27c-7-52 17-82 69-68v24" id="bG"/><g id="L"><use transform="matrix(0.055555555555555546,0,0,0.055555555555555546,0,0)" xlink:href="#bD"/><use transform="matrix(0.055555555555555546,0,0,0.055555555555555546,11.111111111111109,0)" xlink:href="#bG"/></g><g id="M"><use transform="matrix(0.055555555555555546,0,0,0.055555555555555546,0,0)" xlink:href="#bw"/><use transform="matrix(0.055555555555555546,0,0,0.055555555555555546,5.5555555555555545,0)" xlink:href="#bt"/><use transform="matrix(0.055555555555555546,0,0,0.055555555555555546,16.666666666666664,0)" xlink:href="#bu"/><use transform="matrix(0.055555555555555546,0,0,0.055555555555555546,21.055555555555554,0)" xlink:href="#bt"/><use transform="matrix(0.055555555555555546,0,0,0.055555555555555546,32.166666666666664,0)" xlink:href="#bv"/><use transform="matrix(0.055555555555555546,0,0,0.055555555555555546,48.77777777777777,0)" xlink:href="#bt"/><use transform="matrix(0.055555555555555546,0,0,0.055555555555555546,59.88888888888888,0)" xlink:href="#bw"/><use transform="matrix(0.055555555555555546,0,0,0.055555555555555546,65.44444444444443,0)" xlink:href="#bx"/><use transform="matrix(0.055555555555555546,0,0,0.055555555555555546,72.05555555555554,0)" xlink:href="#by"/></g><path fill="#4c535d" d="M85-194c31 0 48 13 60 33l-1-100h32l1 261h-30c-2-10 0-23-3-31C134-8 116 4 85 4 32 4 16-35 15-94c0-66 23-100 70-100zm9 24c-40 0-46 34-46 75 0 40 6 74 45 74 42 0 51-32 51-76 0-42-9-74-50-73" id="bH"/><g id="N"><use transform="matrix(0.055555555555555546,0,0,0.055555555555555546,0,0)" xlink:href="#bH"/><use transform="matrix(0.055555555555555546,0,0,0.055555555555555546,11.111111111111109,0)" xlink:href="#bz"/><use transform="matrix(0.055555555555555546,0,0,0.055555555555555546,22.222222222222218,0)" xlink:href="#bw"/><use transform="matrix(0.055555555555555546,0,0,0.055555555555555546,27.77777777777777,0)" xlink:href="#bz"/></g><filter id="J" filterUnits="objectBoundingBox" x="-.04" y="-.06" width="1.09" height="1.28"><feOffset result="offOut" in="SourceAlpha" dy="6"/><feGaussianBlur result="blurOut" in="offOut" stdDeviation="5"/><feColorMatrix result="colorOut" in="blurOut" values="0 0 0 0 0 0 0 0 0 0 0 0 0 0 0 0 0 0 0.5019607843137255 0"/><feBlend in="SourceGraphic" in2="colorOut"/></filter><path fill="#fff" d="M67-125c0 54 23 88 75 88 28 0 53-7 68-21v-34h-60v-39h108v91C232-14 192 4 140 4 58 4 20-42 15-125 8-236 126-280 215-234c19 10 29 26 37 47l-47 15c-11-23-29-39-63-39-53 1-75 33-75 86" id="bI"/><path fill="#fff" d="M135-194c87-1 58 113 63 194h-50c-7-57 23-157-34-157-59 0-34 97-39 157H25l-1-190h47c2 12-1 28 3 38 12-26 28-41 61-42" id="bJ"/><g id="P"><use transform="matrix(0.061728395061728385,0,0,0.061728395061728385,0,0)" xlink:href="#bI"/><use transform="matrix(0.061728395061728385,0,0,0.061728395061728385,17.28395061728395,0)" xlink:href="#at"/><use transform="matrix(0.061728395061728385,0,0,0.061728395061728385,29.629629629629626,0)" xlink:href="#bJ"/><use transform="matrix(0.061728395061728385,0,0,0.061728395061728385,43.14814814814814,0)" xlink:href="#at"/><use transform="matrix(0.061728395061728385,0,0,0.061728395061728385,55.493827160493815,0)" xlink:href="#aC"/><use transform="matrix(0.061728395061728385,0,0,0.061728395061728385,64.1358024691358,0)" xlink:href="#aH"/><use transform="matrix(0.061728395061728385,0,0,0.061728395061728385,76.48148148148147,0)" xlink:href="#aB"/><use transform="matrix(0.061728395061728385,0,0,0.061728395061728385,83.82716049382715,0)" xlink:href="#at"/><use transform="matrix(0.061728395061728385,0,0,0.061728395061728385,96.17283950617283,0)" xlink:href="#ay"/></g><path fill="#fff" d="M140-251c80 0 125 45 125 126S219 4 139 4C58 4 15-44 15-125s44-126 125-126zm-1 214c52 0 73-35 73-88 0-50-21-86-72-86-52 0-73 35-73 86s22 88 72 88" id="bK"/><g id="Q"><use transform="matrix(0.061728395061728385,0,0,0.061728395061728385,0,0)" xlink:href="#bK"/><use transform="matrix(0.061728395061728385,0,0,0.061728395061728385,17.28395061728395,0)" xlink:href="#az"/><use transform="matrix(0.061728395061728385,0,0,0.061728395061728385,29.135802469135797,0)" xlink:href="#at"/><use transform="matrix(0.061728395061728385,0,0,0.061728395061728385,41.481481481481474,0)" xlink:href="#aw"/></g><path fill="#fff" d="M67-125c0 53 21 87 73 88 37 1 54-22 65-47l45 17C233-25 199 4 140 4 58 4 20-42 15-125 8-235 124-281 211-232c18 10 29 29 36 50l-46 12c-8-25-30-41-62-41-52 0-71 34-72 86" id="bL"/><path fill="#fff" d="M25-224v-37h50v37H25zM25 0v-190h50V0H25" id="bM"/><g id="R"><use transform="matrix(0.061728395061728385,0,0,0.061728395061728385,0,0)" xlink:href="#bL"/><use transform="matrix(0.061728395061728385,0,0,0.061728395061728385,15.987654320987652,0)" xlink:href="#aw"/><use transform="matrix(0.061728395061728385,0,0,0.061728395061728385,22.16049382716049,0)" xlink:href="#bM"/><use transform="matrix(0.061728395061728385,0,0,0.061728395061728385,28.33333333333333,0)" xlink:href="#at"/><use transform="matrix(0.061728395061728385,0,0,0.061728395061728385,40.679012345679006,0)" xlink:href="#bJ"/><use transform="matrix(0.061728395061728385,0,0,0.061728395061728385,54.19753086419752,0)" xlink:href="#aB"/></g><path fill="#fff" d="M24-248c120-7 223 5 221 122C244-46 201 0 124 0H24v-248zM76-40c74 7 117-18 117-86 0-67-45-88-117-82v168" id="bN"/><path fill="#fff" d="M195 0l-88-114-31 24V0H24v-248h52v113l112-113h60L142-143 257 0h-62" id="bO"/><path fill="#fff" d="M4 7l51-268h42L46 7H4" id="bP"/><path fill="#fff" d="M199 0l-22-63H83L61 0H9l90-248h61L250 0h-51zm-33-102l-36-108c-10 38-24 72-36 108h72" id="bQ"/><path fill="#fff" d="M24-248c93 1 206-16 204 79-1 75-69 88-152 82V0H24v-248zm52 121c47 0 100 7 100-41 0-47-54-39-100-39v80" id="bR"/><path fill="#fff" d="M24 0v-248h52V0H24" id="bS"/><g id="S"><use transform="matrix(0.061728395061728385,0,0,0.061728395061728385,0,0)" xlink:href="#aE"/><use transform="matrix(0.061728395061728385,0,0,0.061728395061728385,14.814814814814813,0)" xlink:href="#bN"/><use transform="matrix(0.061728395061728385,0,0,0.061728395061728385,30.802469135802465,0)" xlink:href="#bO"/><use transform="matrix(0.061728395061728385,0,0,0.061728395061728385,46.79012345679011,0)" xlink:href="#bP"/><use transform="matrix(0.061728395061728385,0,0,0.061728395061728385,52.96296296296295,0)" xlink:href="#bQ"/><use transform="matrix(0.061728395061728385,0,0,0.061728395061728385,68.9506172839506,0)" xlink:href="#bR"/><use transform="matrix(0.061728395061728385,0,0,0.061728395061728385,83.76543209876542,0)" xlink:href="#bS"/></g><filter id="O" filterUnits="objectBoundingBox" x="-.05" y="-.04" width="1.11" height="1.22"><feOffset result="offOut" in="SourceAlpha" dy="6"/><feGaussianBlur result="blurOut" in="offOut" stdDeviation="5"/><feColorMatrix result="colorOut" in="blurOut" values="0 0 0 0 0 0 0 0 0 0 0 0 0 0 0 0 0 0 0.5019607843137255 0"/><feBlend in="SourceGraphic" in2="colorOut"/></filter><path fill="#333" d="M220-157c-53 9-28 100-34 157h-49v-107c1-27-5-49-29-50C55-147 81-57 75 0H25l-1-190h47c2 12-1 28 3 38 10-53 101-56 108 0 13-22 24-43 59-42 82 1 51 116 57 194h-49v-107c-1-25-5-48-29-50" id="bT"/><path fill="#333" d="M135-194c53 0 70 44 70 98 0 56-19 98-73 100-31 1-45-17-59-34 3 33 2 69 2 105H25l-1-265h48c2 10 0 23 3 31 11-24 29-35 60-35zM114-30c33 0 39-31 40-66 0-38-9-64-40-64-56 0-55 130 0 130" id="bU"/><path fill="#333" d="M110-194c64 0 96 36 96 99 0 64-35 99-97 99-61 0-95-36-95-99 0-62 34-99 96-99zm-1 164c35 0 45-28 45-65 0-40-10-65-43-65-34 0-45 26-45 65 0 36 10 65 43 65" id="bV"/><path fill="#333" d="M135-150c-39-12-60 13-60 57V0H25l-1-190h47c2 13-1 29 3 40 6-28 27-53 61-41v41" id="bW"/><g id="T"><use transform="matrix(0.04938271604938272,0,0,0.04938271604938272,0,0)" xlink:href="#bh"/><use transform="matrix(0.04938271604938272,0,0,0.04938271604938272,4.938271604938272,0)" xlink:href="#bT"/><use transform="matrix(0.04938271604938272,0,0,0.04938271604938272,20.74074074074074,0)" xlink:href="#bU"/><use transform="matrix(0.04938271604938272,0,0,0.04938271604938272,31.555555555555557,0)" xlink:href="#bV"/><use transform="matrix(0.04938271604938272,0,0,0.04938271604938272,42.370370370370374,0)" xlink:href="#bW"/><use transform="matrix(0.04938271604938272,0,0,0.04938271604938272,49.283950617283956,0)" xlink:href="#bg"/></g><filter id="U" filterUnits="objectBoundingBox" x="-.04" y="-.05" width="1.09" height="1.25"><feOffset result="offOut" in="SourceAlpha" dy="6"/><feGaussianBlur result="blurOut" in="offOut" stdDeviation="5"/><feColorMatrix result="colorOut" in="blurOut" values="0 0 0 0 0 0 0 0 0 0 0 0 0 0 0 0 0 0 0.5019607843137255 0"/><feBlend in="SourceGraphic" in2="colorOut"/></filter><g id="V"><use transform="matrix(0.061728395061728385,0,0,0.061728395061728385,0,0)" xlink:href="#bo"/><use transform="matrix(0.061728395061728385,0,0,0.061728395061728385,15.987654320987652,0)" xlink:href="#af"/><use transform="matrix(0.061728395061728385,0,0,0.061728395061728385,29.506172839506167,0)" xlink:href="#ap"/><use transform="matrix(0.061728395061728385,0,0,0.061728395061728385,49.25925925925925,0)" xlink:href="#Z"/><use transform="matrix(0.061728395061728385,0,0,0.061728395061728385,62.77777777777777,0)" xlink:href="#af"/><use transform="matrix(0.061728395061728385,0,0,0.061728395061728385,76.29629629629629,0)" xlink:href="#ag"/><use transform="matrix(0.061728395061728385,0,0,0.061728395061728385,89.81481481481481,0)" xlink:href="#al"/><use transform="matrix(0.061728395061728385,0,0,0.061728395061728385,102.16049382716048,0)" xlink:href="#ag"/><use transform="matrix(0.061728395061728385,0,0,0.061728395061728385,115.679012345679,0)" xlink:href="#ae"/></g><g id="W"><use transform="matrix(0.061728395061728385,0,0,0.061728395061728385,0,0)" xlink:href="#aY"/><use transform="matrix(0.061728395061728385,0,0,0.061728395061728385,11.85185185185185,0)" xlink:href="#al"/><use transform="matrix(0.061728395061728385,0,0,0.061728395061728385,24.197530864197525,0)" xlink:href="#aa"/><use transform="matrix(0.061728395061728385,0,0,0.061728395061728385,30.370370370370363,0)" xlink:href="#al"/><use transform="matrix(0.061728395061728385,0,0,0.061728395061728385,42.71604938271604,0)" xlink:href="#ap"/><use transform="matrix(0.061728395061728385,0,0,0.061728395061728385,62.46913580246912,0)" xlink:href="#al"/><use transform="matrix(0.061728395061728385,0,0,0.061728395061728385,74.8148148148148,0)" xlink:href="#ae"/><use transform="matrix(0.061728395061728385,0,0,0.061728395061728385,82.16049382716048,0)" xlink:href="#ak"/><use transform="matrix(0.061728395061728385,0,0,0.061728395061728385,90.80246913580245,0)" xlink:href="#aZ"/></g><g id="X"><use transform="matrix(0.061728395061728385,0,0,0.061728395061728385,0,0)" xlink:href="#aq"/><use transform="matrix(0.061728395061728385,0,0,0.061728395061728385,14.814814814814813,0)" xlink:href="#ac"/><use transform="matrix(0.061728395061728385,0,0,0.061728395061728385,27.16049382716049,0)" xlink:href="#be"/><use transform="matrix(0.061728395061728385,0,0,0.061728395061728385,40.679012345679006,0)" xlink:href="#al"/><use transform="matrix(0.061728395061728385,0,0,0.061728395061728385,53.02469135802468,0)" xlink:href="#ap"/><use transform="matrix(0.061728395061728385,0,0,0.061728395061728385,72.77777777777777,0)" xlink:href="#ad"/><use transform="matrix(0.061728395061728385,0,0,0.061728395061728385,85.12345679012344,0)" xlink:href="#am"/></g></defs></g></svg>