<svg xmlns="http://www.w3.org/2000/svg" xmlns:xlink="http://www.w3.org/1999/xlink" xmlns:lucid="lucid" width="995.76" height="892.84"><g transform="translate(-32.5000000000002 -55.83333333333346)" lucid:page-tab-id="v447UJnJO0jA"><path d="M0 0h1760v1360H0z" fill="#fff"/><g filter="url(#a)"><path d="M570.17 95.67a6 6 0 0 1 6-6h419.25a6 6 0 0 1 6 6V289a6 6 0 0 1-6 6H576.17a6 6 0 0 1-6-6z" fill="#edf5ff"/><path d="M573.88 90.14l.44-.18.9-.22.95-.07h2.02m4.02 0h4.03m4.03 0h4.03m4.04 0h4.03m4.03 0h4.04m4.03 0h4.03m4.03 0h4.03m4.03 0h4.02m4.04 0h4.03m4.02 0h4.03m4.03 0h4.03m4.04 0h4.03m4.04 0h4.04m4.03 0H683m4.03 0h4.03m4.03 0h4.02m4.04 0h4.03m4.02 0h4.03m4.03 0h4.03m4.04 0h4.03m4.04 0h4.04m4.03 0h4.03m4.03 0h4.03m4.03 0h4.02m4.04 0h4.03m4.02 0h4.03m4.03 0h4.03m4.04 0h4.04m4.03 0h4.04m4.03 0H812m4.03 0h4.03m4.04 0h4.03m4.03 0h4.03m4.02 0h4.03m4.03 0h4.03m4.05 0h4.03m4.03 0h4.04m4.03 0h4.03m4.03 0h4.03m4.04 0h4.03m4.03 0h4.03m4.02 0h4.03m4.03 0h4.03m4.05 0h4.03m4.03 0h4.04m4.03 0H941m4.03 0h4.04m4.03 0h4.03m4.03 0h4.03m4.02 0h4.03m4.03 0h4.04m4.03 0h4.03m4.03 0h2.02l.94.07.92.22.43.18m3.25 3.24l.18.43.22.93.07.94v2m0 4.04v4.04m0 4.02v4.03m0 4.02v4.03m0 4.03v4.02m0 4.03v4.03m0 4.03v4m0 4.04v4.03m0 4.03v4.03m0 4.02v4.03m0 4.03v4.04m0 4.02v4.03m0 4.02v4.03m0 4.03v4.02m0 4.03v4.03m0 4.03v4m0 4.04v4.03m0 4.03v4.03m0 4.02v4.03m0 4.03v4.04m0 4.02v4.03m0 4.02v4.03m0 4.02v4.03m0 4.03v4.03m0 4.03v2l-.07.94-.22.9-.18.45m-3.24 3.23l-.42.18-.92.23-.94.07h-2m-4.04 0h-4.03m-4.03 0h-4.04m-4.03 0h-4.03m-4.03 0h-4.04m-4.03 0h-4.03m-4.03 0h-4.04m-4.03 0h-4.03m-4.03 0h-4.03m-4.02 0h-4.03m-4.04 0h-4.02m-4.03 0h-4.03m-4.03 0h-4.04m-4.03 0h-4.03m-4.04 0h-4.03m-4.03 0h-4.03m-4.03 0h-4.03m-4.02 0h-4.03m-4.04 0h-4.02m-4.03 0h-4.03m-4.03 0h-4.04m-4.03 0h-4.03m-4.04 0h-4.03m-4.03 0h-4.03m-4.03 0h-4.03m-4.02 0h-4.04m-4.03 0h-4.02m-4.03 0h-4.03m-4.03 0h-4.04m-4.03 0h-4.04m-4.04 0h-4.03m-4.03 0h-4.03m-4.03 0h-4.03m-4.02 0h-4.04m-4.03 0h-4.02m-4.03 0h-4.03m-4.03 0h-4.04m-4.03 0h-4.04m-4.04 0h-4.03m-4.03 0h-4.03m-4.03 0h-4.03m-4.02 0h-4.04m-4.03 0h-4.02m-4.03 0h-4.03m-4.03 0h-4.04m-4.04 0h-4.03m-4.04 0h-4.03m-4.03 0h-4.03m-4.03 0h-4.04m-4.03 0h-4.03m-4.03 0h-4.02m-4.03 0h-4.03m-4.03 0h-2.03l-.94-.07-.9-.22-.45-.17m-3.24-3.24l-.18-.45-.22-.9-.07-.95v-2m0-4.04v-4.03m0-4.03v-4.02m0-4.03v-4.03m0-4.03v-4.04m0-4.02v-4.03m0-4.02v-4.03m0-4.03v-4.02m0-4.03v-4.03m0-4.03v-4m0-4.04v-4.03m0-4.03v-4.03m0-4.02v-4.03m0-4.03v-4.04m0-4.02v-4.03m0-4.02v-4.03m0-4.03v-4.02m0-4.03v-4.03m0-4.03v-4m0-4.04v-4.03m0-4.03v-4.03m0-4.02v-4.03m0-4.03v-4.04m0-4.02v-4.03m0-4.02v-2l.07-.95.22-.92.18-.42" stroke="#3a414a" fill="none"/></g><g filter="url(#b)"><path d="M54 324.67a6 6 0 0 1 6-6h940.76a6 6 0 0 1 6 6v596.5a6 6 0 0 1-6 6H60a6 6 0 0 1-6-6z" fill="#fff"/><path d="M57.7 319.14l.45-.18.9-.22.95-.07h2m3.98 0h4m3.97 0h4m3.97 0h4m3.98 0h3.98m4 0h3.98m3.98 0h4m3.97 0h4m4 0h3.97m4 0h3.98m3.98 0h4m3.98 0h4m3.98 0h3.98m4 0h3.98m3.98 0h4m3.97 0h3.98m4 0h3.97m4 0h3.98m3.98 0h4m4 0h3.97m4 0h3.97m4 0h3.98m3.98 0h4m3.97 0h4m3.98 0h3.98m4 0h3.98m4 0h3.98m4 0h3.97m4 0h3.97m4 0h3.98m3.98 0h4m3.97 0h4m3.98 0h3.98m4 0h4m3.97 0h4m3.98 0h3.98m4 0H349m4 0h3.98m3.98 0h4m3.98 0h3.98m4 0h3.97m3.98 0h4m3.97 0h4m3.97 0h4m3.98 0h3.98m4 0h3.98m3.98 0h4m3.98 0h3.98m4 0h3.97m4 0h3.98m3.98 0h4m3.98 0h4m3.98 0h3.98m4 0h3.98m3.98 0h4m3.98 0h3.98m4 0h3.97m4 0h3.98m3.98 0h4m4 0h3.97m4 0h3.98m3.98 0h4m3.97 0h4m3.98 0h3.98m4 0h3.98m3.98 0h4m3.97 0h3.98m4 0h3.97m4 0h3.98m3.98 0h4m3.98 0h4m3.98 0h3.98m4 0H636m3.98 0h4m3.97 0h4m3.98 0h3.98m4 0h3.98m4 0h3.98m3.98 0h4m3.98 0h3.98m4 0h3.97m3.98 0h4m3.97 0h4m3.98 0h3.98m4 0h3.98m4 0h3.98m3.98 0h4m3.98 0h3.98m4 0h3.98m3.98 0h4m3.97 0h4m3.98 0h4m3.98 0h4m3.97 0h4m3.97 0h4m3.98 0h3.98m4 0h3.98m3.98 0h4m3.97 0h4m4 0h3.97m4 0h3.98m3.98 0h4m3.97 0h4m3.98 0h3.98m4 0h3.98m3.98 0h4m3.97 0h3.98m4 0h3.97m4 0h3.98m3.98 0h4m4 0h3.97m4 0h3.97m4 0h3.98m3.98 0h4m3.98 0h3.98m4 0h3.97m4 0h3.98m4 0h3.98m4 0h1.98l.94.07.9.22.45.18m3.23 3.24l.18.43.22.93.08.94v1.98m0 3.98v3.98m0 3.98v3.98m0 3.98v3.97m0 4v3.97m0 3.98v3.97m0 3.98v3.98m0 3.97v3.98m0 3.98v3.98m0 3.98v3.98m0 3.97v4m0 3.97v3.97m0 3.98v3.98m0 3.97v3.98m0 3.98V438m0 3.98v3.98m0 3.97v3.98m0 4v3.96m0 3.98v3.98m0 3.97v3.97m0 3.98v3.98m0 3.97v3.98m0 3.97v3.98m0 3.98v3.98m0 3.98v3.98m0 3.98v3.97m0 3.97v3.98m0 3.97v3.98m0 3.98v3.97m0 3.98v3.98m0 3.98v3.98m0 3.98v3.97m0 4v3.97m0 3.97v3.98m0 3.98v3.97m0 3.98v3.98m0 3.97v3.98m0 3.98v3.97m0 3.98v4m0 3.96v3.98m0 3.98v3.97m0 3.97v3.98m0 3.98v3.97m0 3.98v3.98m0 3.97v3.98m0 4v3.96m0 3.98v3.98m0 3.97v3.97m0 3.98v3.97m0 3.98v3.98m0 3.97v3.98m0 3.98v3.98m0 3.98v3.98m0 3.97v4m0 3.97v3.97m0 3.98v3.98m0 3.97v3.98m0 3.98V780m0 3.98v3.98m0 3.97v3.98m0 4v3.96m0 3.98v3.98m0 3.97v3.97m0 3.98v3.97m0 3.98v3.98m0 3.98v3.97m0 3.98v4m0 3.96v3.98m0 3.98v3.97m0 3.97v3.98m0 3.97v3.98m0 3.98v3.97m0 3.98v3.98m0 3.98v3.98m0 3.98v3.97m0 4v1.98l-.08.94-.22.9-.18.45m-3.23 3.23l-.44.18-.9.22-.94.08h-2m-3.98 0h-4m-3.97 0h-3.98m-4 0h-3.97m-4 0h-3.98m-3.98 0h-4m-3.98 0h-4m-3.98 0h-3.98m-4 0H935m-3.98 0h-4m-3.97 0h-4m-3.98 0h-3.98m-4 0h-3.98m-4 0h-3.98m-3.98 0h-4m-3.98 0h-3.98m-4 0h-3.98m-3.98 0h-4m-3.97 0h-4m-3.98 0h-3.98m-4 0h-4m-3.97 0h-4m-3.98 0h-3.98m-4 0h-3.97m-4 0h-3.98m-3.98 0h-4m-3.98 0h-3.98m-4 0h-3.97m-3.98 0h-4m-3.97 0h-4m-3.97 0h-4m-3.98 0h-3.98m-4 0h-3.98m-3.98 0h-4m-3.98 0h-3.98m-4 0h-3.97m-4 0h-3.98m-3.98 0h-4m-3.98 0h-4m-3.98 0h-3.98m-4 0h-3.98m-3.98 0h-4m-3.98 0h-3.98m-4 0h-3.97m-4 0h-3.98m-3.98 0h-4m-4 0h-3.97m-4 0h-3.97m-4 0h-3.98m-3.98 0h-4m-3.98 0h-3.98m-4 0h-3.97m-4 0h-3.98m-4 0h-3.98m-4 0h-3.97m-4 0h-3.97m-4 0h-3.98m-3.98 0h-4m-3.98 0h-3.98m-4 0h-3.97m-4 0h-4m-3.97 0h-4m-3.98 0h-3.98m-4 0h-3.97m-4 0h-3.98m-3.98 0h-4m-3.98 0h-3.98m-4 0h-3.97m-3.98 0h-4m-3.97 0h-4m-3.98 0h-3.98m-4 0h-3.98m-4 0h-3.98m-3.98 0h-4m-3.98 0h-3.98m-4 0h-3.98m-3.98 0h-4m-3.97 0h-4m-3.98 0h-4m-3.98 0h-4m-3.97 0h-4m-3.97 0h-4m-3.98 0h-3.98m-4 0h-3.97m-4 0h-3.98m-3.98 0h-4m-4 0h-3.97m-4 0h-3.98m-3.98 0h-4m-3.97 0h-4m-3.98 0h-3.98m-4 0h-3.98m-3.98 0h-4m-3.97 0h-3.98m-4 0h-3.97m-4 0h-3.97m-4 0h-3.98m-3.98 0h-4m-3.98 0h-3.98m-4 0h-3.97m-4 0h-4m-3.97 0h-4m-3.98 0h-3.98m-4 0h-3.97m-4 0h-3.98m-3.98 0h-4m-3.98 0h-3.98m-4 0h-3.97m-3.98 0h-4m-3.97 0h-4m-3.98 0h-3.98m-4 0h-3.98m-4 0h-3.98m-3.98 0h-4m-3.98 0H89.9m-4 0h-3.98m-3.98 0h-4m-3.97 0h-4m-3.98 0h-2l-.94-.08-.9-.22-.45-.18m-3.23-3.23l-.18-.44-.23-.9-.07-.95v-2m0-3.97v-3.96m0-3.98v-3.98m0-3.97v-3.97m0-3.98v-3.97m0-3.98v-3.98m0-3.97v-3.98m0-3.98v-4m0-3.96v-3.98m0-3.97v-4m0-3.97v-3.98m0-3.97v-3.98m0-3.98v-3.97m0-3.98v-3.98m0-3.98v-3.98m0-3.98v-3.97m0-4v-3.97m0-3.97v-3.98m0-3.98v-3.97m0-3.98v-3.98m0-3.97v-3.98m0-3.98v-3.97m0-3.98v-4m0-3.96v-3.98m0-3.98v-3.97m0-3.97v-3.98m0-3.97v-3.98m0-3.98v-3.97m0-3.98v-3.98m0-4v-3.96m0-3.98v-3.97m0-4v-3.97m0-3.98v-3.97m0-3.98v-3.98m0-3.97v-3.98m0-3.98v-3.98m0-3.98v-3.98m0-3.97v-4m0-3.97v-3.97m0-3.98V609m0-3.97v-3.98m0-3.98v-3.97m0-3.98v-3.98m0-3.97v-3.98m0-4v-3.96m0-3.98v-3.98m0-3.97v-3.97m0-3.98v-3.97m0-3.98v-3.98m0-3.97v-3.98m0-3.98v-4m0-3.96v-3.98m0-3.97v-4m0-3.97v-3.98m0-3.97v-3.98m0-3.97v-3.98m0-3.98v-3.98m0-3.98v-3.98m0-3.98v-3.97m0-4v-3.97m0-3.97v-3.98m0-3.98v-3.97m0-3.98v-3.98m0-3.97v-3.98m0-3.98v-3.97m0-3.98v-4m0-3.96v-3.98m0-3.98v-3.97m0-3.97v-3.98m0-3.97v-3.98m0-3.98v-3.97m0-3.98v-3.98m0-4v-3.96m0-3.98v-3.98m0-3.97v-3.97m0-3.98v-1.98l.07-.94.22-.92.17-.42" stroke="#3a414a" fill="none"/><use xlink:href="#c" transform="matrix(1,0,0,1,66.00000000000023,330.6666666666667) translate(0 14.222222222222221)"/><use xlink:href="#d" transform="matrix(1,0,0,1,66.00000000000023,330.6666666666667) translate(92.69135802469134 14.222222222222221)"/></g><g filter="url(#e)"><path d="M54 83.33a6 6 0 0 1 6-6h408a6 6 0 0 1 6 6V274a6 6 0 0 1-6 6H60a6 6 0 0 1-6-6z" fill="#edf5ff"/><path d="M57.7 77.8l.45-.17.9-.22.95-.07h2m4 0h4m4 0h4m4 0h4m4 0h4m4 0h4m4 0h4m4 0h4m4 0h4m4 0h4m4 0h4m4 0h4m4 0h4m4 0h4m4 0h4m4 0h4m4 0h4m4 0h4m4 0h4m4 0h4m4 0h4m4 0h4m4 0h4m4 0h4m4 0h4m4 0h4m4 0h4m4 0h4m4 0h4m4 0h4m4 0h4m4 0h4m4 0h4m4 0h4m4 0h4m4 0h4m4 0h4m4 0h4m4 0h4m4 0h4m4 0h4m4 0h4m4 0h4m4 0h4m4 0h4m4 0h4m4 0h4m4 0h4m4 0h4m4 0h4m4 0h4m4 0h2l.94.08.9.23.45.18m3.23 3.24l.18.44.23.9.07.95v2m0 3.96v3.96m0 3.98v3.97m0 3.98v3.97m0 3.97v3.98m0 3.97v3.97m0 3.97v4m0 3.96v3.97m0 3.97v3.97m0 3.98v3.97m0 3.97v3.96m0 3.98v3.97m0 3.98v3.97m0 3.97v3.98m0 3.97v3.97m0 3.97v4m0 3.96v3.97m0 3.97v3.97m0 3.98v3.97m0 3.97v3.96m0 3.98v3.97m0 3.98v3.97m0 3.97v3.98m0 3.97v3.97m0 3.97v2l-.07.94-.22.9-.17.45m-3.24 3.23l-.45.18-.9.23-.95.07h-2m-4 0h-4m-4 0h-4m-4 0h-4m-4 0h-4m-4 0h-4m-4 0h-4m-4 0h-4m-4 0h-4m-4 0h-4m-4 0h-4m-4 0h-4m-4 0h-4m-4 0h-4m-4 0h-4m-4 0h-4m-4 0h-4m-4 0h-4m-4 0h-4m-4 0h-4m-4 0h-4m-4 0h-4m-4 0h-4m-4 0h-4m-4 0h-4m-4 0h-4m-4 0h-4m-4 0h-4m-4 0h-4m-4 0h-4m-4 0h-4m-4 0h-4m-4 0h-4m-4 0h-4m-4 0h-4m-4 0h-4m-4 0h-4m-4 0h-4m-4 0h-4m-4 0h-4m-4 0h-4m-4 0h-4m-4 0h-4m-4 0h-4m-4 0h-4m-4 0h-4m-4 0h-4m-4 0h-4m-4 0h-4m-4 0h-4m-4 0h-4m-4 0h-2l-.94-.07-.9-.22-.45-.17m-3.23-3.24l-.18-.45-.23-.9L54 274v-2m0-3.96v-3.97m0-3.97v-3.98m0-3.97v-3.97m0-3.97v-3.96m0-3.98v-3.97m0-3.98v-3.97m0-3.97v-3.98m0-3.97v-3.97m0-3.97v-4m0-3.96v-3.97m0-3.97v-3.97m0-3.98v-3.97m0-3.97v-3.96m0-3.98v-3.97m0-3.98v-3.97m0-3.97v-3.98m0-3.97v-3.97m0-3.97v-4m0-3.96v-3.97m0-3.97v-3.97m0-3.98v-3.97m0-3.97v-3.96m0-3.98V89.3m0-3.98v-2l.07-.92.22-.92.17-.44" stroke="#3a414a" fill="none"/><use xlink:href="#f" transform="matrix(1,0,0,1,66.0000000000002,89.33333333333347) translate(0 14.222222222222221)"/><use xlink:href="#g" transform="matrix(1,0,0,1,66.0000000000002,89.33333333333347) translate(132.79012345679013 14.222222222222221)"/></g><g filter="url(#h)"><path d="M561.1 83.33a6 6 0 0 1 6-6H985a6 6 0 0 1 6 6V274a6 6 0 0 1-6 6H567.1a6 6 0 0 1-6-6z" fill="#edf5ff"/><path d="M564.8 77.8l.44-.17.9-.22.95-.07h2m4.02 0h4.02m4.02 0h4m4.03 0h4m4.03 0h4.02m4.02 0h4m4.03 0h4.02m4.02 0h4.02m4.02 0h4.02m4 0h4.03m4.02 0h4.02m4.02 0h4m4.02 0h4.02m4.02 0h4.02m4.02 0h4.02m4.02 0h4m4.03 0h4.02m4 0h4.03m4.02 0h4m4.03 0h4.02m4.02 0h4.02m4.02 0h4.02m4 0h4.03m4.03 0h4.02m4.02 0H762m4 0h4.02m4.02 0h4.02m4.02 0h4.02m4.02 0h4m4.03 0h4.02m4.02 0h4m4.03 0h4m4.03 0h4.02m4.02 0h4.02m4.02 0h4.02m4 0h4.03m4 0h4.03m4.02 0h4.02m4 0h4.03m4.02 0h4.02m4.02 0h4.02m4.02 0h4m4.03 0h4.02m4.02 0h4.02m4 0h4.03m4 0h4.03m4.02 0h4.02m4.02 0h4.02m4 0h4.03m4.02 0h4m4.03 0h4.02m4.02 0h4m4.03 0h2l.95.08.92.23.43.18m3.24 3.24l.18.44.22.9.07.95v2m0 3.96v3.96m0 3.98v3.97m0 3.98v3.97m0 3.97v3.98m0 3.97v3.97m0 3.97v4m0 3.96v3.97m0 3.97v3.97m0 3.98v3.97m0 3.97v3.96m0 3.98v3.97m0 3.98v3.97m0 3.97v3.98m0 3.97v3.97m0 3.97v4m0 3.96v3.97m0 3.97v3.97m0 3.98v3.97m0 3.97v3.96m0 3.98v3.97m0 3.98v3.97m0 3.97v3.98m0 3.97v3.97m0 3.97v2l-.06.94-.22.9-.18.45m-3.24 3.23l-.43.18-.92.23-.94.07h-2m-4.02 0h-4m-4.03 0h-4.02m-4.02 0h-4m-4.03 0h-4m-4.03 0h-4.02m-4.02 0h-4.02m-4.02 0h-4.02m-4 0h-4.03m-4 0h-4.03m-4.02 0h-4.02m-4 0h-4.03m-4.02 0h-4.02m-4.02 0h-4.02m-4.02 0h-4m-4.03 0h-4.02m-4.02 0h-4.02m-4 0h-4.02m-4.02 0h-4.02m-4.02 0h-4.02m-4.02 0h-4.02m-4 0h-4.03m-4.02 0h-4m-4.03 0h-4.02m-4 0h-4.03m-4.02 0h-4.02m-4.02 0h-4.02m-4.02 0h-4m-4.03 0h-4.03m-4.02 0h-4.02m-4.02 0h-4m-4.02 0h-4.02m-4.02 0h-4.02m-4.02 0h-4.02m-4 0h-4.03m-4.02 0h-4.02m-4 0h-4.03m-4.02 0h-4m-4.03 0h-4.02m-4.02 0h-4.02m-4.02 0h-4m-4.03 0h-4m-4.03 0h-4.02m-4.02 0h-4.02m-4 0h-4.02m-4.02 0h-4.02m-4.02 0h-4.02m-4 0h-4.03m-4.02 0h-4.02m-4.02 0h-4m-4.03 0h-4m-4.03 0h-4.02m-4.02 0h-2l-.95-.07-.9-.22-.45-.17m-3.23-3.24l-.2-.45-.2-.9-.08-.95v-2m0-3.96v-3.97m0-3.97v-3.98m0-3.97v-3.97m0-3.97v-3.96m0-3.98v-3.97m0-3.98v-3.97m0-3.97v-3.98m0-3.97v-3.97m0-3.97v-4m0-3.96v-3.97m0-3.97v-3.97m0-3.98v-3.97m0-3.97v-3.96m0-3.98v-3.97m0-3.98v-3.97m0-3.97v-3.98m0-3.97v-3.97m0-3.97v-4m0-3.96v-3.97m0-3.97v-3.97m0-3.98v-3.97m0-3.97v-3.96m0-3.98V89.3m0-3.98v-2l.06-.92.23-.92.17-.44" stroke="#3a414a" fill="none"/><use xlink:href="#i" transform="matrix(1,0,0,1,573.0911906202293,89.33333333333346) translate(0 14.222222222222221)"/><use xlink:href="#j" transform="matrix(1,0,0,1,573.0911906202293,89.33333333333346) translate(65.03703703703702 14.222222222222221)"/><use xlink:href="#k" transform="matrix(1,0,0,1,573.0911906202293,89.33333333333346) translate(82.76543209876542 14.222222222222221)"/><use xlink:href="#l" transform="matrix(1,0,0,1,573.0911906202293,89.33333333333346) translate(147.85185185185185 14.222222222222221)"/></g><path d="M774.66 756.67h-1v-2h1zm0-5.98h-1v-4h1zm0-7.97h-1v-3.98h1zm0-7.97h-1v-3.98h1zm0-7.96h-1v-3.98h1zm0-7.96h-1v-4h1zm0-7.97h-1v-3.98h1zm0-7.96h-1v-3.97h1zm0-7.96h-1v-3.98h1zm0-7.96h-1V683h1zm0-7.97h-1v-3.97h1zm0-7.95h-1v-3.98h1zm0-7.96h-1v-4h1zm0-7.98h-1v-3.98h1zm0-7.96h-1v-3.98h1zm0-7.97h-1v-4h1zm0-7.97h-1v-3.98h1zm0-7.96h-1v-4h1zm0-7.97h-1v-3.98h1zm0-7.96h-1v-4h1zm0-7.97h-1v-3.98h1zm0-7.96h-1v-3.97h1zm0-7.96h-1v-3.98h1zm0-7.96h-1v-3.98h1zm0-7.96h-1v-4h1zm0-7.97h-1v-3.98h1zm0-7.96h-1v-4h1zm0-7.98h-1v-3.98h1zm0-7.96h-1v-3.98h1zm0-7.96h-1v-4h1zm0-7.97h-1v-3.98h1zm0-31.86h-1v-3.98h1zm0-7.96h-1v-3.97h1zm0-7.95h-1v-4h1zm0-7.97h-1V460h1zm0-7.96h-1v-3.98h1zm0-7.97h-1v-3.98h1zm0-7.96h-1v-4h1zm0-7.98h-1v-3.98h1zm0-7.96h-1v-3.98h1zm0-7.97h-1v-4h1zm0-7.97h-1v-3.98h1zm0-7.96h-1v-3.98h1zm0-7.97h-1v-3.98h1zm0-7.96h-1v-3.98h1zm0-7.97h-1v-3.98h1zm0-7.96h-1v-3.97h1zm0-7.95h-1v-4h1zm0-7.97h-1v-3.98h1zm0-7.96h-1v-3.98h1zm0-7.97h-1v-3.98h1zm0-7.96h-1v-4h1zm0-7.98h-1v-3.98h1zm0-7.96h-1v-3.98h1zm0-7.96h-1v-4h1zm0-7.97h-1v-3.98h1zm0-7.96h-1v-3.98h1zm0-7.97h-1v-3.98h1zm0-7.96h-1v-3.98h1zm0-7.96h-1v-2h1z" stroke="#3a414a" stroke-width=".05" fill="#3a414a"/><path d="M774.66 757.17h-1v-.52h1z" fill="#3a414a"/><path d="M774.7 757.2h-1.06v-.57h1.05zm-1-.52v.46h.94v-.46z" stroke="#3a414a" stroke-width=".05" fill="#3a414a"/><path d="M778.8 262.38h-9.27l4.63-14.26z" fill="#3a414a"/><path d="M779.5 262.88h-10.66l5.32-16.38zm-9.28-1h7.9l-3.96-12.14z" stroke="#3a414a" stroke-width=".05" fill="#3a414a"/><use xlink:href="#m" transform="matrix(1,0,0,1,727.8668846445619,491.16666747059054) translate(0 14.222222222222223)"/><use xlink:href="#n" transform="matrix(1,0,0,1,727.8668846445619,491.16666747059054) translate(57.13580246913581 14.222222222222223)"/><g filter="url(#o)"><path d="M673.5 764.67a6 6 0 0 1 6-6h189.33a6 6 0 0 1 6 6V830a6 6 0 0 1-6 6H679.5a6 6 0 0 1-6-6z" stroke="#6f7681" stroke-width="3" fill="#6f7681"/><use xlink:href="#p" transform="matrix(1,0,0,1,685.4965142741917,770.6666666666667) translate(28.691358024691354 31.27777777777778)"/></g><path d="M582.84 182.67h-116.3" stroke="#3a414a" fill="none"/><path d="M583.34 183.17h-.5v-1h.5z" stroke="#3a414a" stroke-width=".05" fill="#3a414a"/><path d="M451.77 182.67l14.27-4.64v9.27z" stroke="#3a414a" fill="#3a414a"/><use xlink:href="#q" transform="matrix(1,0,0,1,488.18035063354205,157.3333333333335) translate(0 14.222222222222223)"/><path d="M593 145.33a6 6 0 0 1 6-6H958.5a6 6 0 0 1 6 6V240a6 6 0 0 1-6 6H599a6 6 0 0 1-6-6z" stroke="#3a414a" fill="#f2f3f5" filter="url(#r)"/><g filter="url(#r)"><path d="M583.84 135.33a6 6 0 0 1 6-6h359.48a6 6 0 0 1 6 6V230a6 6 0 0 1-6 6H589.84a6 6 0 0 1-6-6z" stroke="#3a414a" fill="#f2f3f5"/><use xlink:href="#s" transform="matrix(1,0,0,1,595.8429334831335,141.3333333333335) translate(5.450617283950635 33.34027777777778)"/><use xlink:href="#t" transform="matrix(1,0,0,1,595.8429334831335,141.3333333333335) translate(239.40123456790118 33.34027777777778)"/><use xlink:href="#u" transform="matrix(1,0,0,1,595.8429334831335,141.3333333333335) translate(20.512345679012356 60.00694444444445)"/><use xlink:href="#v" transform="matrix(1,0,0,1,595.8429334831335,141.3333333333335) translate(130.32716049382717 60.00694444444445)"/><use xlink:href="#w" transform="matrix(1,0,0,1,595.8429334831335,141.3333333333335) translate(238.78395061728395 60.00694444444445)"/></g><path d="M78.18 145.33a6 6 0 0 1 6-6h359.47a6 6 0 0 1 6 6V240a6 6 0 0 1-6 6H84.18a6 6 0 0 1-6-6z" stroke="#3a414a" fill="#f2f3f5" filter="url(#r)"/><g filter="url(#r)"><path d="M69 135.33a6 6 0 0 1 6-6h359.5a6 6 0 0 1 6 6V230a6 6 0 0 1-6 6H75a6 6 0 0 1-6-6z" stroke="#3a414a" fill="#f2f3f5"/><use xlink:href="#s" transform="matrix(1,0,0,1,81.01308587560871,141.33333333333348) translate(5.450617283950635 20.37152777777778)"/><use xlink:href="#t" transform="matrix(1,0,0,1,81.01308587560871,141.33333333333348) translate(239.40123456790118 20.37152777777778)"/><use xlink:href="#u" transform="matrix(1,0,0,1,81.01308587560871,141.33333333333348) translate(41.03703703703704 47.03819444444444)"/><use xlink:href="#x" transform="matrix(1,0,0,1,81.01308587560871,141.33333333333348) translate(150.85185185185185 47.03819444444444)"/><use xlink:href="#y" transform="matrix(1,0,0,1,81.01308587560871,141.33333333333348) translate(204.679012345679 47.03819444444444)"/><use xlink:href="#w" transform="matrix(1,0,0,1,81.01308587560871,141.33333333333348) translate(129.64814814814815 73.70486111111111)"/></g><g filter="url(#e)"><path d="M73.6 399.33a6 6 0 0 1 6-6h408a6 6 0 0 1 6 6V590a6 6 0 0 1-6 6h-408a6 6 0 0 1-6-6z" fill="#edf5ff"/><path d="M77.3 393.8l.44-.17.92-.22.94-.07h2m4 0h4m4 0h4m4 0h4m4 0h4m4 0h4m4 0h4m4 0h4m4 0h4m4 0h4m4 0h4m4 0h4m4 0h4m4 0h4m4 0h4m4 0h4m4 0h4m4 0h4m4 0h4m4 0h4m4 0h4m4 0h4m4 0h4m4 0h4m4 0h4m4 0h4m4 0h4m4 0h4m4 0h4m4 0h4m4 0h4m4 0h4m4 0h4m4 0h4m4 0h4m4 0h4m4 0h4m4 0h4m4 0h4m4 0h4m4 0h4m4 0h4m4 0h4m4 0h4m4 0h4m4 0h4m4 0h4m4 0h4m4 0h4m4 0h4m4 0h4m4 0h2l.93.08.92.23.43.18m3.24 3.24l.18.44.22.9.08.95v2m0 3.96v3.96m0 3.98v3.97m0 3.98v3.97m0 3.98v3.97m0 3.97v3.97m0 3.97v4m0 3.96v3.97m0 3.97v3.98m0 3.97v3.97m0 3.97v3.96m0 3.98v3.97m0 3.98v3.97m0 3.98v3.97m0 3.97v3.97m0 3.97v4m0 3.96v3.97m0 3.97v3.98m0 3.97v3.97m0 3.97v3.96m0 3.98v3.97m0 3.98v3.97m0 3.98v3.97m0 3.97v3.97m0 3.97v2l-.08.94-.22.9-.18.45m-3.24 3.23l-.43.18-.92.23-.93.07h-2m-4 0h-4m-4 0h-4m-4 0h-4m-4 0h-4m-4 0h-4m-4 0h-4m-4 0h-4m-4 0h-4m-4 0h-4m-4 0h-4m-4 0h-4m-4 0h-4m-4 0h-4m-4 0h-4m-4 0h-4m-4 0h-4m-4 0h-4m-4 0h-4m-4 0h-4m-4 0h-4m-4 0h-4m-4 0h-4m-4 0h-4m-4 0h-4m-4 0h-4m-4 0h-4m-4 0h-4m-4 0h-4m-4 0h-4m-4 0h-4m-4 0h-4m-4 0h-4m-4 0h-4m-4 0h-4m-4 0h-4m-4 0h-4m-4 0h-4m-4 0h-4m-4 0h-4m-4 0h-4m-4 0h-4m-4 0h-4m-4 0h-4m-4 0h-4m-4 0h-4m-4 0h-4m-4 0h-4m-4 0h-4m-4 0h-4m-4 0h-4m-4 0h-2l-.94-.07-.92-.22-.43-.17m-3.23-3.24l-.18-.45-.23-.9-.08-.95v-2m0-3.96v-3.97m0-3.97v-3.98m0-3.97v-3.97m0-3.97v-3.96m0-3.98v-3.97m0-3.98v-3.97m0-3.98v-3.97m0-3.97v-3.97m0-3.97v-4m0-3.96v-3.97m0-3.97v-3.98m0-3.97v-3.97m0-3.97v-3.96m0-3.98v-3.97m0-3.98v-3.97m0-3.98v-3.97m0-3.97v-3.97m0-3.97v-4m0-3.96v-3.97m0-3.97v-3.98m0-3.97v-3.97m0-3.97v-3.96m0-3.98v-3.97m0-3.98v-2l.07-.93.22-.92.17-.44" stroke="#3a414a" fill="none"/><use xlink:href="#z" transform="matrix(1,0,0,1,85.59467634603786,405.3333333333333) translate(0 14.222222222222221)"/><use xlink:href="#g" transform="matrix(1,0,0,1,85.59467634603786,405.3333333333333) translate(138.07407407407408 14.222222222222221)"/></g><path d="M97.77 461.33a6 6 0 0 1 6-6h359.48a6 6 0 0 1 6 6V556a6 6 0 0 1-6 6H103.77a6 6 0 0 1-6-6z" stroke="#3a414a" fill="#f2f3f5" filter="url(#r)"/><g filter="url(#r)"><path d="M88.6 451.33a6 6 0 0 1 6-6h359.5a6 6 0 0 1 5.98 6V546a6 6 0 0 1-6 6H94.6a6 6 0 0 1-6-6z" stroke="#3a414a" fill="#f2f3f5"/><use xlink:href="#A" transform="matrix(1,0,0,1,100.60776222164642,457.33333333333337) translate(9.092592592592581 20.37152777777778)"/><use xlink:href="#B" transform="matrix(1,0,0,1,100.60776222164642,457.33333333333337) translate(138.29012345679013 20.37152777777778)"/><use xlink:href="#C" transform="matrix(1,0,0,1,100.60776222164642,457.33333333333337) translate(247.61111111111111 20.37152777777778)"/><use xlink:href="#v" transform="matrix(1,0,0,1,100.60776222164642,457.33333333333337) translate(50.3888888888889 47.03819444444444)"/><use xlink:href="#D" transform="matrix(1,0,0,1,100.60776222164642,457.33333333333337) translate(158.84567901234567 47.03819444444444)"/><use xlink:href="#E" transform="matrix(1,0,0,1,100.60776222164642,457.33333333333337) translate(258.2283950617284 47.03819444444444)"/><use xlink:href="#F" transform="matrix(1,0,0,1,100.60776222164642,457.33333333333337) translate(24.40123456790124 73.70486111111111)"/><use xlink:href="#G" transform="matrix(1,0,0,1,100.60776222164642,457.33333333333337) translate(129.15432098765433 73.70486111111111)"/><use xlink:href="#H" transform="matrix(1,0,0,1,100.60776222164642,457.33333333333337) translate(238.47530864197532 73.70486111111111)"/></g><path d="M367.17 444.33h-1v-88h1zm0-109.33h-1v-72.12h1z" stroke="#3a414a" stroke-width=".05" fill="#3a414a"/><path d="M367.17 444.83h-1v-.5h1z" fill="#3a414a"/><path d="M367.2 444.86h-1.06v-.56h1.05zm-1-.5v.45h.94v-.45z" stroke="#3a414a" stroke-width=".05" fill="#3a414a"/><path d="M371.3 262.4h-9.27l4.64-14.28z" fill="#3a414a"/><path d="M372 262.9h-10.66l5.33-16.4zm-9.28-1h7.9l-3.95-12.16z" stroke="#3a414a" stroke-width=".05" fill="#3a414a"/><use xlink:href="#q" transform="matrix(1,0,0,1,338.09876640574146,334.9999730339403) translate(0 14.222222222222223)"/><g filter="url(#e)"><path d="M73.5 700.67a6 6 0 0 1 6-6h408a6 6 0 0 1 6 6v190.66a6 6 0 0 1-6 6h-408a6 6 0 0 1-6-6z" fill="#edf5ff"/><path d="M77.22 695.14l.44-.18.9-.22.95-.07h2m4 0h4m4 0h4m4 0h4m4 0h4m4 0h4m4 0h4m4 0h4m4 0h4m4 0h4m4 0h4m4 0h4m4 0h4m4 0h4m4 0h4m4 0h4m4 0h4m4 0h4m4 0h4m4 0h4m4 0h4m4 0h4m4 0h4m4 0h4m4 0h4m4 0h4m4 0h4m4 0h4m4 0h4m4 0h4m4 0h4m4 0h4m4 0h4m4 0h4m4 0h4m4 0h4m4 0h4m4 0h4m4 0h4m4 0h4m4 0h4m4 0h4m4 0h4m4 0h4m4 0h4m4 0h4m4 0h4m4 0h4m4 0h4m4 0h4m4 0h4m4 0h2l.95.07.9.22.45.18m3.24 3.24l.18.43.22.93.07.94v1.98m0 3.98v3.97m0 3.97v3.97m0 3.97v4m0 3.96v3.97m0 3.97v3.98m0 3.97v3.97m0 3.97v3.96m0 3.98v3.97m0 3.98v3.97m0 3.98v3.97m0 3.97v3.97m0 3.97v4m0 3.96v3.97m0 3.97v3.98m0 3.97v3.97m0 3.97v3.96m0 3.98v3.97m0 3.98v3.97m0 3.98v3.97m0 3.97v3.97m0 3.97v4m0 3.96v3.97m0 3.97v3.98m0 3.97v1.98l-.06.94-.22.92-.18.42m-3.24 3.24l-.44.18-.9.22-.95.07h-2m-4 0h-4m-4 0h-4m-4 0h-4m-4 0h-4m-4 0h-4m-4 0h-4m-4 0h-4m-4 0h-4m-4 0h-4m-4 0h-4m-4 0h-4m-4 0h-4m-4 0h-4m-4 0h-4m-4 0h-4m-4 0h-4m-4 0h-4m-4 0h-4m-4 0h-4m-4 0h-4m-4 0h-4m-4 0h-4m-4 0h-4m-4 0h-4m-4 0h-4m-4 0h-4m-4 0h-4m-4 0h-4m-4 0h-4m-4 0h-4m-4 0h-4m-4 0h-4m-4 0h-4m-4 0h-4m-4 0h-4m-4 0h-4m-4 0h-4m-4 0h-4m-4 0h-4m-4 0h-4m-4 0h-4m-4 0h-4m-4 0h-4m-4 0h-4m-4 0h-4m-4 0h-4m-4 0h-4m-4 0h-4m-4 0h-4m-4 0h-4m-4 0h-2l-.93-.07-.9-.22-.45-.18m-3.24-3.24l-.18-.43-.22-.93-.07-.94v-1.98m0-3.98v-3.97m0-3.97v-3.97m0-3.97v-4m0-3.96v-3.97m0-3.97v-3.98m0-3.97v-3.97m0-3.97v-3.96m0-3.98v-3.97m0-3.98v-3.97m0-3.98v-3.97m0-3.97v-3.97m0-3.97v-4m0-3.96v-3.97m0-3.97v-3.98m0-3.97v-3.97m0-3.97v-3.96m0-3.98v-3.97m0-3.98v-3.97m0-3.98v-3.97m0-3.97v-3.97m0-3.97v-4m0-3.96v-3.97m0-3.97v-3.98m0-3.97v-1.98l.08-.94.22-.92.18-.42" stroke="#3a414a" fill="none"/><use xlink:href="#I" transform="matrix(1,0,0,1,85.50960014980043,706.6666666666667) translate(0 14.222222222222221)"/><use xlink:href="#g" transform="matrix(1,0,0,1,85.50960014980043,706.6666666666667) translate(146.8148148148148 14.222222222222221)"/></g><path d="M97.7 762.67a6 6 0 0 1 6-6h359.46a6 6 0 0 1 6 6v94.66a6 6 0 0 1-6 6H103.7a6 6 0 0 1-6-6z" stroke="#3a414a" fill="#f2f3f5" filter="url(#r)"/><g filter="url(#r)"><path d="M88.52 752.67a6 6 0 0 1 6-6H454a6 6 0 0 1 6 6v94.66a6 6 0 0 1-6 6H94.52a6 6 0 0 1-6-6z" stroke="#3a414a" fill="#f2f3f5"/><use xlink:href="#s" transform="matrix(1,0,0,1,100.522686025409,758.6666666666669) translate(5.450617283950635 33.34027777777778)"/><use xlink:href="#t" transform="matrix(1,0,0,1,100.522686025409,758.6666666666669) translate(239.40123456790118 33.34027777777778)"/><use xlink:href="#u" transform="matrix(1,0,0,1,100.522686025409,758.6666666666669) translate(20.512345679012356 60.00694444444445)"/><use xlink:href="#v" transform="matrix(1,0,0,1,100.522686025409,758.6666666666669) translate(130.32716049382717 60.00694444444445)"/><use xlink:href="#w" transform="matrix(1,0,0,1,100.522686025409,758.6666666666669) translate(238.78395061728395 60.00694444444445)"/></g><path d="M365.83 745.67h-1V678.3h1zm0-88.7h-1v-78.1h1z" stroke="#3a414a" stroke-width=".05" fill="#3a414a"/><path d="M365.83 746.17h-1v-.52h1z" fill="#3a414a"/><path d="M365.86 746.2h-1.05v-.57h1.06zm-1-.52v.46h.95v-.46z" stroke="#3a414a" stroke-width=".05" fill="#3a414a"/><path d="M369.97 578.38h-9.27l4.63-14.26z" fill="#3a414a"/><path d="M370.66 578.88H360l5.33-16.38zm-9.27-1h7.88l-3.95-12.14z" stroke="#3a414a" stroke-width=".05" fill="#3a414a"/><use xlink:href="#q" transform="matrix(1,0,0,1,336.7654320523817,656.9558980995059) translate(0 14.222222222222223)"/><path d="M534.9 800.5h-4v-1h4zm-8 0h-4v-1h4zm-8 0h-4v-1h4zm-8 0h-4v-1h4zm-8 0h-4v-1h4zm-8 0h-4v-1h4zm-8 0h-4v-1h4zm-8 0h-2.02v-1h2zm192.6-2.67h-2v-1h2zm-6 0h-4v-1h4zm-8 0h-4v-1h4zm-8 0h-3.98v-1h4zm-7.98 0h-4v-1h4zm-8 0h-2.24v-1h2.25z" stroke="#3a414a" stroke-width=".05" fill="#3a414a"/><path d="M672 797.83h-.52v-1h.52z" fill="#3a414a"/><path d="M672.02 797.86h-.56v-1.05h.56zm-.5-1v.95h.45v-.94z" stroke="#3a414a" stroke-width=".05" fill="#3a414a"/><path d="M476.38 804.63L462.12 800l14.26-4.63z" fill="#3a414a"/><path d="M476.88 805.32L460.5 800l16.38-5.32zM463.74 800l12.14 3.95v-7.9z" stroke="#3a414a" stroke-width=".05" fill="#3a414a"/><use xlink:href="#m" transform="matrix(1,0,0,1,538.6836826104302,786.6666666666667) translate(0 14.222222222222223)"/><use xlink:href="#n" transform="matrix(1,0,0,1,538.6836826104302,786.6666666666667) translate(57.13580246913581 14.222222222222223)"/><defs><filter id="a" filterUnits="objectBoundingBox" x="-.02" y="-.02" width="1.05" height="1.1"><feOffset result="offOut" in="SourceAlpha" dy="6"/><feGaussianBlur result="blurOut" in="offOut" stdDeviation="5"/><feColorMatrix result="colorOut" in="blurOut" values="0 0 0 0 0 0 0 0 0 0 0 0 0 0 0 0 0 0 0.5019607843137255 0"/><feBlend in="SourceGraphic" in2="colorOut"/></filter><path fill="#4c535d" d="M24 0v-248h195v40H76v63h132v40H76v65h150V0H24" id="J"/><path fill="#4c535d" d="M135-194c87-1 58 113 63 194h-50c-7-57 23-157-34-157-59 0-34 97-39 157H25l-1-190h47c2 12-1 28 3 38 12-26 28-41 61-42" id="K"/><path fill="#4c535d" d="M115-3C79 11 28 4 28-45v-112H4v-33h27l15-45h31v45h36v33H77v99c-1 23 16 31 38 25v30" id="L"/><path fill="#4c535d" d="M185-48c-13 30-37 53-82 52C43 2 14-33 14-96s30-98 90-98c62 0 83 45 84 108H66c0 31 8 55 39 56 18 0 30-7 34-22zm-45-69c5-46-57-63-70-21-2 6-4 13-4 21h74" id="M"/><path fill="#4c535d" d="M135-150c-39-12-60 13-60 57V0H25l-1-190h47c2 13-1 29 3 40 6-28 27-53 61-41v41" id="N"/><path fill="#4c535d" d="M135-194c53 0 70 44 70 98 0 56-19 98-73 100-31 1-45-17-59-34 3 33 2 69 2 105H25l-1-265h48c2 10 0 23 3 31 11-24 29-35 60-35zM114-30c33 0 39-31 40-66 0-38-9-64-40-64-56 0-55 130 0 130" id="O"/><path fill="#4c535d" d="M25-224v-37h50v37H25zM25 0v-190h50V0H25" id="P"/><path fill="#4c535d" d="M137-138c1-29-70-34-71-4 15 46 118 7 119 86 1 83-164 76-172 9l43-7c4 19 20 25 44 25 33 8 57-30 24-41C81-84 22-81 20-136c-2-80 154-74 161-7" id="Q"/><g id="c"><use transform="matrix(0.049382716049382706,0,0,0.049382716049382706,0,0)" xlink:href="#J"/><use transform="matrix(0.049382716049382706,0,0,0.049382716049382706,11.85185185185185,0)" xlink:href="#K"/><use transform="matrix(0.049382716049382706,0,0,0.049382716049382706,22.666666666666664,0)" xlink:href="#L"/><use transform="matrix(0.049382716049382706,0,0,0.049382716049382706,28.543209876543205,0)" xlink:href="#M"/><use transform="matrix(0.049382716049382706,0,0,0.049382716049382706,38.419753086419746,0)" xlink:href="#N"/><use transform="matrix(0.049382716049382706,0,0,0.049382716049382706,45.33333333333333,0)" xlink:href="#O"/><use transform="matrix(0.049382716049382706,0,0,0.049382716049382706,56.14814814814814,0)" xlink:href="#N"/><use transform="matrix(0.049382716049382706,0,0,0.049382716049382706,63.061728395061714,0)" xlink:href="#P"/><use transform="matrix(0.049382716049382706,0,0,0.049382716049382706,67.99999999999999,0)" xlink:href="#Q"/><use transform="matrix(0.049382716049382706,0,0,0.049382716049382706,77.87654320987653,0)" xlink:href="#M"/></g><path fill="#4c535d" d="M182-130c37 4 62 22 62 59C244 23 116-4 24 0v-248c84 5 203-23 205 63 0 31-19 50-47 55zM76-148c40-3 101 13 101-30 0-44-60-28-101-31v61zm0 110c48-3 116 14 116-37 0-48-69-32-116-35v72" id="R"/><path fill="#4c535d" d="M110-194c64 0 96 36 96 99 0 64-35 99-97 99-61 0-95-36-95-99 0-62 34-99 96-99zm-1 164c35 0 45-28 45-65 0-40-10-65-43-65-34 0-45 26-45 65 0 36 10 65 43 65" id="S"/><path fill="#4c535d" d="M85 4C-2 5 27-109 22-190h50c7 57-23 150 33 157 60-5 35-97 40-157h50l1 190h-47c-2-12 1-28-3-38-12 25-28 42-61 42" id="T"/><path fill="#4c535d" d="M88-194c31-1 46 15 58 34l-1-101h50l1 261h-48c-2-10 0-23-3-31C134-8 116 4 84 4 32 4 16-41 15-95c0-56 19-97 73-99zm17 164c33 0 40-30 41-66 1-37-9-64-41-64s-38 30-39 65c0 43 13 65 39 65" id="U"/><path fill="#4c535d" d="M133-34C117-15 103 5 69 4 32 3 11-16 11-54c-1-60 55-63 116-61 1-26-3-47-28-47-18 1-26 9-28 27l-52-2c7-38 36-58 82-57s74 22 75 68l1 82c-1 14 12 18 25 15v27c-30 8-71 5-69-32zm-48 3c29 0 43-24 42-57-32 0-66-3-65 30 0 17 8 27 23 27" id="V"/><path fill="#4c535d" d="M123 10C108 53 80 86 19 72V37c35 8 53-11 59-39L3-190h52l48 148c12-52 28-100 44-148h51" id="W"/><g id="d"><use transform="matrix(0.049382716049382706,0,0,0.049382716049382706,0,0)" xlink:href="#R"/><use transform="matrix(0.049382716049382706,0,0,0.049382716049382706,12.790123456790122,0)" xlink:href="#S"/><use transform="matrix(0.049382716049382706,0,0,0.049382716049382706,23.604938271604937,0)" xlink:href="#T"/><use transform="matrix(0.049382716049382706,0,0,0.049382716049382706,34.419753086419746,0)" xlink:href="#K"/><use transform="matrix(0.049382716049382706,0,0,0.049382716049382706,45.234567901234556,0)" xlink:href="#U"/><use transform="matrix(0.049382716049382706,0,0,0.049382716049382706,56.04938271604936,0)" xlink:href="#V"/><use transform="matrix(0.049382716049382706,0,0,0.049382716049382706,65.92592592592591,0)" xlink:href="#N"/><use transform="matrix(0.049382716049382706,0,0,0.049382716049382706,72.83950617283949,0)" xlink:href="#W"/></g><filter id="b" filterUnits="objectBoundingBox" x="-.01" y="-.01" width="1.02" height="1.03"><feOffset result="offOut" in="SourceAlpha" dy="6"/><feGaussianBlur result="blurOut" in="offOut" stdDeviation="5"/><feColorMatrix result="colorOut" in="blurOut" values="0 0 0 0 0 0 0 0 0 0 0 0 0 0 0 0 0 0 0.5019607843137255 0"/><feBlend in="SourceGraphic" in2="colorOut"/></filter><path fill="#4c535d" d="M140-251c80 0 125 45 125 126S219 4 139 4C58 4 15-44 15-125s44-126 125-126zm-1 214c52 0 73-35 73-88 0-50-21-86-72-86-52 0-73 35-73 86s22 88 72 88" id="X"/><path fill="#4c535d" d="M136-208V0H84v-208H4v-40h212v40h-80" id="Y"/><path fill="#4c535d" d="M25 0v-261h50V0H25" id="Z"/><path fill="#4c535d" d="M220-157c-53 9-28 100-34 157h-49v-107c1-27-5-49-29-50C55-147 81-57 75 0H25l-1-190h47c2 12-1 28 3 38 10-53 101-56 108 0 13-22 24-43 59-42 82 1 51 116 57 194h-49v-107c-1-25-5-48-29-50" id="aa"/><g id="f"><use transform="matrix(0.049382716049382706,0,0,0.049382716049382706,0,0)" xlink:href="#X"/><use transform="matrix(0.049382716049382706,0,0,0.049382716049382706,13.827160493827158,0)" xlink:href="#O"/><use transform="matrix(0.049382716049382706,0,0,0.049382716049382706,24.64197530864197,0)" xlink:href="#M"/><use transform="matrix(0.049382716049382706,0,0,0.049382716049382706,34.51851851851851,0)" xlink:href="#K"/><use transform="matrix(0.049382716049382706,0,0,0.049382716049382706,45.33333333333333,0)" xlink:href="#Y"/><use transform="matrix(0.049382716049382706,0,0,0.049382716049382706,54.8148148148148,0)" xlink:href="#M"/><use transform="matrix(0.049382716049382706,0,0,0.049382716049382706,64.69135802469135,0)" xlink:href="#Z"/><use transform="matrix(0.049382716049382706,0,0,0.049382716049382706,69.62962962962962,0)" xlink:href="#M"/><use transform="matrix(0.049382716049382706,0,0,0.049382716049382706,79.50617283950616,0)" xlink:href="#aa"/><use transform="matrix(0.049382716049382706,0,0,0.049382716049382706,95.30864197530863,0)" xlink:href="#M"/><use transform="matrix(0.049382716049382706,0,0,0.049382716049382706,105.18518518518519,0)" xlink:href="#L"/><use transform="matrix(0.049382716049382706,0,0,0.049382716049382706,111.06172839506173,0)" xlink:href="#N"/><use transform="matrix(0.049382716049382706,0,0,0.049382716049382706,117.9753086419753,0)" xlink:href="#W"/></g><path fill="#4c535d" d="M230 0l2-204L168 0h-37L68-204 70 0H24v-248h70l56 185 57-185h69V0h-46" id="ab"/><path fill="#4c535d" d="M121-226c-27-7-43 5-38 36h38v33H83V0H34v-157H6v-33h28c-9-59 32-81 87-68v32" id="ac"/><g id="g"><use transform="matrix(0.049382716049382706,0,0,0.049382716049382706,0,0)" xlink:href="#ab"/><use transform="matrix(0.049382716049382706,0,0,0.049382716049382706,14.765432098765428,0)" xlink:href="#V"/><use transform="matrix(0.049382716049382706,0,0,0.049382716049382706,24.641975308641968,0)" xlink:href="#K"/><use transform="matrix(0.049382716049382706,0,0,0.049382716049382706,35.456790123456784,0)" xlink:href="#P"/><use transform="matrix(0.049382716049382706,0,0,0.049382716049382706,40.395061728395056,0)" xlink:href="#ac"/><use transform="matrix(0.049382716049382706,0,0,0.049382716049382706,46.2716049382716,0)" xlink:href="#M"/><use transform="matrix(0.049382716049382706,0,0,0.049382716049382706,56.14814814814814,0)" xlink:href="#Q"/><use transform="matrix(0.049382716049382706,0,0,0.049382716049382706,66.02469135802468,0)" xlink:href="#L"/><use transform="matrix(0.049382716049382706,0,0,0.049382716049382706,71.90123456790123,0)" xlink:href="#Q"/></g><filter id="e" filterUnits="objectBoundingBox" x="-.02" y="-.02" width="1.05" height="1.1"><feOffset result="offOut" in="SourceAlpha" dy="6"/><feGaussianBlur result="blurOut" in="offOut" stdDeviation="5"/><feColorMatrix result="colorOut" in="blurOut" values="0 0 0 0 0 0 0 0 0 0 0 0 0 0 0 0 0 0 0.5019607843137255 0"/><feBlend in="SourceGraphic" in2="colorOut"/></filter><path fill="#4c535d" d="M147 0H94L2-248h55l64 206c17-72 42-137 63-206h54" id="ad"/><g id="i"><use transform="matrix(0.049382716049382706,0,0,0.049382716049382706,0,0)" xlink:href="#ad"/><use transform="matrix(0.049382716049382706,0,0,0.049382716049382706,10.864197530864196,0)" xlink:href="#M"/><use transform="matrix(0.049382716049382706,0,0,0.049382716049382706,20.740740740740737,0)" xlink:href="#K"/><use transform="matrix(0.049382716049382706,0,0,0.049382716049382706,31.55555555555555,0)" xlink:href="#U"/><use transform="matrix(0.049382716049382706,0,0,0.049382716049382706,42.37037037037037,0)" xlink:href="#S"/><use transform="matrix(0.049382716049382706,0,0,0.049382716049382706,53.185185185185176,0)" xlink:href="#N"/></g><path fill="#4c535d" d="M168-19C124 19 11 11 16-68c3-43 29-60 59-75-25-44-12-111 53-106 37 3 64 15 64 52 0 43-40 52-69 68 12 22 27 41 43 59 14-19 21-38 28-64l37 13c-8 29-19 52-34 74 12 10 32 16 52 10v35c-28 11-65-2-81-17zm-58-139c19-9 43-14 43-39 0-14-10-22-25-22-34 0-33 41-18 61zM60-68c-3 40 55 47 79 25-18-20-34-42-48-67-18 8-30 20-31 42" id="ae"/><use transform="matrix(0.049382716049382706,0,0,0.049382716049382706,0,0)" xlink:href="#ae" id="j"/><path fill="#4c535d" d="M24 0v-248h52v208h133V0H24" id="af"/><path fill="#4c535d" d="M135-194c52 0 70 43 70 98 0 56-19 99-73 100-30 1-46-15-58-35L72 0H24l1-261h50v104c11-23 29-37 60-37zM114-30c31 0 40-27 40-66 0-37-7-63-39-63s-41 28-41 65c0 36 8 64 40 64" id="ag"/><g id="k"><use transform="matrix(0.049382716049382706,0,0,0.049382716049382706,0,0)" xlink:href="#af"/><use transform="matrix(0.049382716049382706,0,0,0.049382716049382706,10.814814814814813,0)" xlink:href="#P"/><use transform="matrix(0.049382716049382706,0,0,0.049382716049382706,15.753086419753084,0)" xlink:href="#ag"/><use transform="matrix(0.049382716049382706,0,0,0.049382716049382706,26.567901234567895,0)" xlink:href="#N"/><use transform="matrix(0.049382716049382706,0,0,0.049382716049382706,33.48148148148148,0)" xlink:href="#V"/><use transform="matrix(0.049382716049382706,0,0,0.049382716049382706,43.358024691358025,0)" xlink:href="#N"/><use transform="matrix(0.049382716049382706,0,0,0.049382716049382706,50.27160493827161,0)" xlink:href="#W"/></g><g id="l"><use transform="matrix(0.049382716049382706,0,0,0.049382716049382706,0,0)" xlink:href="#ab"/><use transform="matrix(0.049382716049382706,0,0,0.049382716049382706,14.765432098765428,0)" xlink:href="#V"/><use transform="matrix(0.049382716049382706,0,0,0.049382716049382706,24.641975308641968,0)" xlink:href="#K"/><use transform="matrix(0.049382716049382706,0,0,0.049382716049382706,35.456790123456784,0)" xlink:href="#P"/><use transform="matrix(0.049382716049382706,0,0,0.049382716049382706,40.395061728395056,0)" xlink:href="#ac"/><use transform="matrix(0.049382716049382706,0,0,0.049382716049382706,46.2716049382716,0)" xlink:href="#M"/><use transform="matrix(0.049382716049382706,0,0,0.049382716049382706,56.14814814814814,0)" xlink:href="#Q"/><use transform="matrix(0.049382716049382706,0,0,0.049382716049382706,66.02469135802468,0)" xlink:href="#L"/><use transform="matrix(0.049382716049382706,0,0,0.049382716049382706,71.90123456790123,0)" xlink:href="#Q"/></g><filter id="h" filterUnits="objectBoundingBox" x="-.02" y="-.02" width="1.05" height="1.1"><feOffset result="offOut" in="SourceAlpha" dy="6"/><feGaussianBlur result="blurOut" in="offOut" stdDeviation="5"/><feColorMatrix result="colorOut" in="blurOut" values="0 0 0 0 0 0 0 0 0 0 0 0 0 0 0 0 0 0 0.5019607843137255 0"/><feBlend in="SourceGraphic" in2="colorOut"/></filter><path fill="#333" d="M88-194c31-1 46 15 58 34l-1-101h50l1 261h-48c-2-10 0-23-3-31C134-8 116 4 84 4 32 4 16-41 15-95c0-56 19-97 73-99zm17 164c33 0 40-30 41-66 1-37-9-64-41-64s-38 30-39 65c0 43 13 65 39 65" id="ah"/><path fill="#333" d="M185-48c-13 30-37 53-82 52C43 2 14-33 14-96s30-98 90-98c62 0 83 45 84 108H66c0 31 8 55 39 56 18 0 30-7 34-22zm-45-69c5-46-57-63-70-21-2 6-4 13-4 21h74" id="ai"/><path fill="#333" d="M121-226c-27-7-43 5-38 36h38v33H83V0H34v-157H6v-33h28c-9-59 32-81 87-68v32" id="aj"/><path fill="#333" d="M25-224v-37h50v37H25zM25 0v-190h50V0H25" id="ak"/><path fill="#333" d="M135-194c87-1 58 113 63 194h-50c-7-57 23-157-34-157-59 0-34 97-39 157H25l-1-190h47c2 12-1 28 3 38 12-26 28-41 61-42" id="al"/><g id="m"><use transform="matrix(0.04938271604938272,0,0,0.04938271604938272,0,0)" xlink:href="#ah"/><use transform="matrix(0.04938271604938272,0,0,0.04938271604938272,10.814814814814815,0)" xlink:href="#ai"/><use transform="matrix(0.04938271604938272,0,0,0.04938271604938272,20.69135802469136,0)" xlink:href="#aj"/><use transform="matrix(0.04938271604938272,0,0,0.04938271604938272,26.567901234567902,0)" xlink:href="#ak"/><use transform="matrix(0.04938271604938272,0,0,0.04938271604938272,31.506172839506174,0)" xlink:href="#al"/><use transform="matrix(0.04938271604938272,0,0,0.04938271604938272,42.320987654320994,0)" xlink:href="#ai"/></g><path fill="#333" d="M231 0h-52l-39-155L100 0H48L-1-190h46L77-45c9-52 24-97 36-145h53l37 145 32-145h46" id="am"/><path fill="#333" d="M115-3C79 11 28 4 28-45v-112H4v-33h27l15-45h31v45h36v33H77v99c-1 23 16 31 38 25v30" id="an"/><path fill="#333" d="M114-157C55-157 80-60 75 0H25v-261h50l-1 109c12-26 28-41 61-42 86-1 58 113 63 194h-50c-7-57 23-157-34-157" id="ao"/><g id="n"><use transform="matrix(0.04938271604938272,0,0,0.04938271604938272,0,0)" xlink:href="#am"/><use transform="matrix(0.04938271604938272,0,0,0.04938271604938272,13.827160493827162,0)" xlink:href="#ak"/><use transform="matrix(0.04938271604938272,0,0,0.04938271604938272,18.765432098765434,0)" xlink:href="#an"/><use transform="matrix(0.04938271604938272,0,0,0.04938271604938272,24.641975308641978,0)" xlink:href="#ao"/></g><path fill="#fff" d="M199 0l-22-63H83L61 0H9l90-248h61L250 0h-51zm-33-102l-36-108c-10 38-24 72-36 108h72" id="ap"/><path fill="#fff" d="M135-194c53 0 70 44 70 98 0 56-19 98-73 100-31 1-45-17-59-34 3 33 2 69 2 105H25l-1-265h48c2 10 0 23 3 31 11-24 29-35 60-35zM114-30c33 0 39-31 40-66 0-38-9-64-40-64-56 0-55 130 0 130" id="aq"/><path fill="#fff" d="M25 0v-261h50V0H25" id="ar"/><path fill="#fff" d="M25-224v-37h50v37H25zM25 0v-190h50V0H25" id="as"/><path fill="#fff" d="M190-63c-7 42-38 67-86 67-59 0-84-38-90-98-12-110 154-137 174-36l-49 2c-2-19-15-32-35-32-30 0-35 28-38 64-6 74 65 87 74 30" id="at"/><path fill="#fff" d="M133-34C117-15 103 5 69 4 32 3 11-16 11-54c-1-60 55-63 116-61 1-26-3-47-28-47-18 1-26 9-28 27l-52-2c7-38 36-58 82-57s74 22 75 68l1 82c-1 14 12 18 25 15v27c-30 8-71 5-69-32zm-48 3c29 0 43-24 42-57-32 0-66-3-65 30 0 17 8 27 23 27" id="au"/><path fill="#fff" d="M115-3C79 11 28 4 28-45v-112H4v-33h27l15-45h31v45h36v33H77v99c-1 23 16 31 38 25v30" id="av"/><path fill="#fff" d="M110-194c64 0 96 36 96 99 0 64-35 99-97 99-61 0-95-36-95-99 0-62 34-99 96-99zm-1 164c35 0 45-28 45-65 0-40-10-65-43-65-34 0-45 26-45 65 0 36 10 65 43 65" id="aw"/><path fill="#fff" d="M135-194c87-1 58 113 63 194h-50c-7-57 23-157-34-157-59 0-34 97-39 157H25l-1-190h47c2 12-1 28 3 38 12-26 28-41 61-42" id="ax"/><g id="p"><use transform="matrix(0.06172839506172839,0,0,0.06172839506172839,0,0)" xlink:href="#ap"/><use transform="matrix(0.06172839506172839,0,0,0.06172839506172839,15.987654320987653,0)" xlink:href="#aq"/><use transform="matrix(0.06172839506172839,0,0,0.06172839506172839,29.50617283950617,0)" xlink:href="#aq"/><use transform="matrix(0.06172839506172839,0,0,0.06172839506172839,43.02469135802469,0)" xlink:href="#ar"/><use transform="matrix(0.06172839506172839,0,0,0.06172839506172839,49.19753086419753,0)" xlink:href="#as"/><use transform="matrix(0.06172839506172839,0,0,0.06172839506172839,55.370370370370374,0)" xlink:href="#at"/><use transform="matrix(0.06172839506172839,0,0,0.06172839506172839,67.71604938271605,0)" xlink:href="#au"/><use transform="matrix(0.06172839506172839,0,0,0.06172839506172839,80.06172839506173,0)" xlink:href="#av"/><use transform="matrix(0.06172839506172839,0,0,0.06172839506172839,87.40740740740742,0)" xlink:href="#as"/><use transform="matrix(0.06172839506172839,0,0,0.06172839506172839,93.58024691358025,0)" xlink:href="#aw"/><use transform="matrix(0.06172839506172839,0,0,0.06172839506172839,107.09876543209877,0)" xlink:href="#ax"/></g><filter id="o" filterUnits="objectBoundingBox" x="-.05" y="-.05" width="1.1" height="1.26"><feOffset result="offOut" in="SourceAlpha" dy="6"/><feGaussianBlur result="blurOut" in="offOut" stdDeviation="5"/><feColorMatrix result="colorOut" in="blurOut" values="0 0 0 0 0 0 0 0 0 0 0 0 0 0 0 0 0 0 0.5019607843137255 0"/><feBlend in="SourceGraphic" in2="colorOut"/></filter><path fill="#333" d="M144 0l-44-69L55 0H2l70-98-66-92h53l41 62 40-62h54l-67 91 71 99h-54" id="ay"/><g id="q"><use transform="matrix(0.04938271604938272,0,0,0.04938271604938272,0,0)" xlink:href="#ai"/><use transform="matrix(0.04938271604938272,0,0,0.04938271604938272,9.876543209876544,0)" xlink:href="#ay"/><use transform="matrix(0.04938271604938272,0,0,0.04938271604938272,19.75308641975309,0)" xlink:href="#an"/><use transform="matrix(0.04938271604938272,0,0,0.04938271604938272,25.629629629629633,0)" xlink:href="#ai"/><use transform="matrix(0.04938271604938272,0,0,0.04938271604938272,35.50617283950618,0)" xlink:href="#al"/><use transform="matrix(0.04938271604938272,0,0,0.04938271604938272,46.320987654320994,0)" xlink:href="#ah"/></g><filter id="r" filterUnits="objectBoundingBox" x="-.03" y="-.04" width="1.05" height="1.19"><feOffset result="offOut" in="SourceAlpha" dy="6"/><feGaussianBlur result="blurOut" in="offOut" stdDeviation="5"/><feColorMatrix result="colorOut" in="blurOut" values="0 0 0 0 0 0 0 0 0 0 0 0 0 0 0 0 0 0 0.5019607843137255 0"/><feBlend in="SourceGraphic" in2="colorOut"/></filter><path fill="#4c535d" d="M67-125c0 53 21 87 73 88 37 1 54-22 65-47l45 17C233-25 199 4 140 4 58 4 20-42 15-125 8-235 124-281 211-232c18 10 29 29 36 50l-46 12c-8-25-30-41-62-41-52 0-71 34-72 86" id="az"/><path fill="#4c535d" d="M4 7l51-268h42L46 7H4" id="aA"/><path fill="#4c535d" d="M240-174c0 40-23 61-54 70L253 0h-59l-57-94H76V0H24v-248c93 4 217-23 216 74zM76-134c48-2 112 12 112-38 0-48-66-32-112-35v73" id="aB"/><path fill="#4c535d" d="M128 0H69L1-190h53L99-40l48-150h52" id="aC"/><g id="s"><use transform="matrix(0.06172839506172839,0,0,0.06172839506172839,0,0)" xlink:href="#az"/><use transform="matrix(0.06172839506172839,0,0,0.06172839506172839,15.987654320987653,0)" xlink:href="#S"/><use transform="matrix(0.06172839506172839,0,0,0.06172839506172839,29.50617283950617,0)" xlink:href="#aa"/><use transform="matrix(0.06172839506172839,0,0,0.06172839506172839,49.25925925925925,0)" xlink:href="#O"/><use transform="matrix(0.06172839506172839,0,0,0.06172839506172839,62.77777777777777,0)" xlink:href="#S"/><use transform="matrix(0.06172839506172839,0,0,0.06172839506172839,76.29629629629629,0)" xlink:href="#K"/><use transform="matrix(0.06172839506172839,0,0,0.06172839506172839,89.81481481481481,0)" xlink:href="#M"/><use transform="matrix(0.06172839506172839,0,0,0.06172839506172839,102.1604938271605,0)" xlink:href="#K"/><use transform="matrix(0.06172839506172839,0,0,0.06172839506172839,115.67901234567901,0)" xlink:href="#L"/><use transform="matrix(0.06172839506172839,0,0,0.06172839506172839,123.0246913580247,0)" xlink:href="#aA"/><use transform="matrix(0.06172839506172839,0,0,0.06172839506172839,129.19753086419755,0)" xlink:href="#aB"/><use transform="matrix(0.06172839506172839,0,0,0.06172839506172839,145.1851851851852,0)" xlink:href="#M"/><use transform="matrix(0.06172839506172839,0,0,0.06172839506172839,157.53086419753086,0)" xlink:href="#Q"/><use transform="matrix(0.06172839506172839,0,0,0.06172839506172839,169.87654320987653,0)" xlink:href="#S"/><use transform="matrix(0.06172839506172839,0,0,0.06172839506172839,183.39506172839504,0)" xlink:href="#Z"/><use transform="matrix(0.06172839506172839,0,0,0.06172839506172839,189.56790123456787,0)" xlink:href="#aC"/><use transform="matrix(0.06172839506172839,0,0,0.06172839506172839,201.91358024691354,0)" xlink:href="#M"/><use transform="matrix(0.06172839506172839,0,0,0.06172839506172839,214.2592592592592,0)" xlink:href="#U"/></g><g id="t"><use transform="matrix(0.06172839506172839,0,0,0.06172839506172839,0,0)" xlink:href="#Y"/><use transform="matrix(0.06172839506172839,0,0,0.06172839506172839,11.851851851851851,0)" xlink:href="#M"/><use transform="matrix(0.06172839506172839,0,0,0.06172839506172839,24.19753086419753,0)" xlink:href="#Z"/><use transform="matrix(0.06172839506172839,0,0,0.06172839506172839,30.37037037037037,0)" xlink:href="#M"/><use transform="matrix(0.06172839506172839,0,0,0.06172839506172839,42.71604938271605,0)" xlink:href="#aa"/><use transform="matrix(0.06172839506172839,0,0,0.06172839506172839,62.46913580246914,0)" xlink:href="#M"/><use transform="matrix(0.06172839506172839,0,0,0.06172839506172839,74.81481481481482,0)" xlink:href="#L"/><use transform="matrix(0.06172839506172839,0,0,0.06172839506172839,82.16049382716051,0)" xlink:href="#N"/><use transform="matrix(0.06172839506172839,0,0,0.06172839506172839,90.80246913580248,0)" xlink:href="#W"/></g><path fill="#4c535d" d="M169-182c-1-43-94-46-97-3 18 66 151 10 154 114 3 95-165 93-204 36-6-8-10-19-12-30l50-8c3 46 112 56 116 5-17-69-150-10-154-114-4-87 153-88 188-35 5 8 8 18 10 28" id="aD"/><path fill="#4c535d" d="M190-63c-7 42-38 67-86 67-59 0-84-38-90-98-12-110 154-137 174-36l-49 2c-2-19-15-32-35-32-30 0-35 28-38 64-6 74 65 87 74 30" id="aE"/><path fill="#4c535d" d="M114-157C55-157 80-60 75 0H25v-261h50l-1 109c12-26 28-41 61-42 86-1 58 113 63 194h-50c-7-57 23-157-34-157" id="aF"/><path fill="#4c535d" d="M76-54c-1 42 2 86-19 110H24C36 42 46 24 48 0H25v-54h51" id="aG"/><g id="u"><use transform="matrix(0.06172839506172839,0,0,0.06172839506172839,0,0)" xlink:href="#aD"/><use transform="matrix(0.06172839506172839,0,0,0.06172839506172839,14.814814814814813,0)" xlink:href="#aE"/><use transform="matrix(0.06172839506172839,0,0,0.06172839506172839,27.160493827160494,0)" xlink:href="#aF"/><use transform="matrix(0.06172839506172839,0,0,0.06172839506172839,40.67901234567901,0)" xlink:href="#M"/><use transform="matrix(0.06172839506172839,0,0,0.06172839506172839,53.02469135802469,0)" xlink:href="#aa"/><use transform="matrix(0.06172839506172839,0,0,0.06172839506172839,72.77777777777777,0)" xlink:href="#V"/><use transform="matrix(0.06172839506172839,0,0,0.06172839506172839,85.12345679012346,0)" xlink:href="#Q"/><use transform="matrix(0.06172839506172839,0,0,0.06172839506172839,97.46913580246914,0)" xlink:href="#aG"/></g><g id="v"><use transform="matrix(0.06172839506172839,0,0,0.06172839506172839,0,0)" xlink:href="#aD"/><use transform="matrix(0.06172839506172839,0,0,0.06172839506172839,14.814814814814813,0)" xlink:href="#M"/><use transform="matrix(0.06172839506172839,0,0,0.06172839506172839,27.160493827160494,0)" xlink:href="#aa"/><use transform="matrix(0.06172839506172839,0,0,0.06172839506172839,46.91358024691358,0)" xlink:href="#az"/><use transform="matrix(0.06172839506172839,0,0,0.06172839506172839,62.901234567901234,0)" xlink:href="#S"/><use transform="matrix(0.06172839506172839,0,0,0.06172839506172839,76.41975308641975,0)" xlink:href="#K"/><use transform="matrix(0.06172839506172839,0,0,0.06172839506172839,89.93827160493827,0)" xlink:href="#aC"/></g><path fill="#4c535d" d="M195-6C206 82 75 100 31 46c-4-6-6-13-8-21l49-6c3 16 16 24 34 25 40 0 42-37 40-79-11 22-30 35-61 35-53 0-70-43-70-97 0-56 18-96 73-97 30 0 46 14 59 34l2-30h47zm-90-29c32 0 41-27 41-63 0-35-9-62-40-62-32 0-39 29-40 63 0 36 9 62 39 62" id="aH"/><g id="w"><use transform="matrix(0.06172839506172839,0,0,0.06172839506172839,0,0)" xlink:href="#aB"/><use transform="matrix(0.06172839506172839,0,0,0.06172839506172839,15.987654320987653,0)" xlink:href="#M"/><use transform="matrix(0.06172839506172839,0,0,0.06172839506172839,28.333333333333332,0)" xlink:href="#aH"/><use transform="matrix(0.06172839506172839,0,0,0.06172839506172839,41.85185185185185,0)" xlink:href="#P"/><use transform="matrix(0.06172839506172839,0,0,0.06172839506172839,48.02469135802469,0)" xlink:href="#Q"/><use transform="matrix(0.06172839506172839,0,0,0.06172839506172839,60.37037037037037,0)" xlink:href="#L"/><use transform="matrix(0.06172839506172839,0,0,0.06172839506172839,67.71604938271605,0)" xlink:href="#N"/><use transform="matrix(0.06172839506172839,0,0,0.06172839506172839,76.35802469135803,0)" xlink:href="#W"/></g><g id="x"><use transform="matrix(0.06172839506172839,0,0,0.06172839506172839,0,0)" xlink:href="#X"/><use transform="matrix(0.06172839506172839,0,0,0.06172839506172839,17.28395061728395,0)" xlink:href="#Y"/><use transform="matrix(0.06172839506172839,0,0,0.06172839506172839,29.1358024691358,0)" xlink:href="#M"/><use transform="matrix(0.06172839506172839,0,0,0.06172839506172839,41.48148148148148,0)" xlink:href="#Z"/></g><g id="y"><use transform="matrix(0.06172839506172839,0,0,0.06172839506172839,0,0)" xlink:href="#aD"/><use transform="matrix(0.06172839506172839,0,0,0.06172839506172839,14.814814814814813,0)" xlink:href="#M"/><use transform="matrix(0.06172839506172839,0,0,0.06172839506172839,27.160493827160494,0)" xlink:href="#aa"/><use transform="matrix(0.06172839506172839,0,0,0.06172839506172839,46.91358024691358,0)" xlink:href="#az"/><use transform="matrix(0.06172839506172839,0,0,0.06172839506172839,62.901234567901234,0)" xlink:href="#S"/><use transform="matrix(0.06172839506172839,0,0,0.06172839506172839,76.41975308641975,0)" xlink:href="#K"/><use transform="matrix(0.06172839506172839,0,0,0.06172839506172839,89.93827160493827,0)" xlink:href="#aC"/></g><path fill="#4c535d" d="M14-72v-43h91v43H14" id="aI"/><g id="z"><use transform="matrix(0.049382716049382706,0,0,0.049382716049382706,0,0)" xlink:href="#J"/><use transform="matrix(0.049382716049382706,0,0,0.049382716049382706,11.85185185185185,0)" xlink:href="#K"/><use transform="matrix(0.049382716049382706,0,0,0.049382716049382706,22.666666666666664,0)" xlink:href="#L"/><use transform="matrix(0.049382716049382706,0,0,0.049382716049382706,28.543209876543205,0)" xlink:href="#M"/><use transform="matrix(0.049382716049382706,0,0,0.049382716049382706,38.419753086419746,0)" xlink:href="#N"/><use transform="matrix(0.049382716049382706,0,0,0.049382716049382706,45.33333333333333,0)" xlink:href="#O"/><use transform="matrix(0.049382716049382706,0,0,0.049382716049382706,56.14814814814814,0)" xlink:href="#N"/><use transform="matrix(0.049382716049382706,0,0,0.049382716049382706,63.061728395061714,0)" xlink:href="#P"/><use transform="matrix(0.049382716049382706,0,0,0.049382716049382706,67.99999999999999,0)" xlink:href="#Q"/><use transform="matrix(0.049382716049382706,0,0,0.049382716049382706,77.87654320987653,0)" xlink:href="#M"/><use transform="matrix(0.049382716049382706,0,0,0.049382716049382706,87.75308641975307,0)" xlink:href="#aI"/><use transform="matrix(0.049382716049382706,0,0,0.049382716049382706,93.62962962962962,0)" xlink:href="#Z"/><use transform="matrix(0.049382716049382706,0,0,0.049382716049382706,98.56790123456788,0)" xlink:href="#M"/><use transform="matrix(0.049382716049382706,0,0,0.049382716049382706,108.44444444444443,0)" xlink:href="#aC"/><use transform="matrix(0.049382716049382706,0,0,0.049382716049382706,118.32098765432096,0)" xlink:href="#M"/><use transform="matrix(0.049382716049382706,0,0,0.049382716049382706,128.19753086419752,0)" xlink:href="#Z"/></g><g id="A"><use transform="matrix(0.06172839506172839,0,0,0.06172839506172839,0,0)" xlink:href="#az"/><use transform="matrix(0.06172839506172839,0,0,0.06172839506172839,15.987654320987653,0)" xlink:href="#S"/><use transform="matrix(0.06172839506172839,0,0,0.06172839506172839,29.50617283950617,0)" xlink:href="#aa"/><use transform="matrix(0.06172839506172839,0,0,0.06172839506172839,49.25925925925925,0)" xlink:href="#O"/><use transform="matrix(0.06172839506172839,0,0,0.06172839506172839,62.77777777777777,0)" xlink:href="#S"/><use transform="matrix(0.06172839506172839,0,0,0.06172839506172839,76.29629629629629,0)" xlink:href="#K"/><use transform="matrix(0.06172839506172839,0,0,0.06172839506172839,89.81481481481481,0)" xlink:href="#M"/><use transform="matrix(0.06172839506172839,0,0,0.06172839506172839,102.1604938271605,0)" xlink:href="#K"/><use transform="matrix(0.06172839506172839,0,0,0.06172839506172839,115.67901234567901,0)" xlink:href="#L"/></g><g id="B"><use transform="matrix(0.06172839506172839,0,0,0.06172839506172839,0,0)" xlink:href="#Y"/><use transform="matrix(0.06172839506172839,0,0,0.06172839506172839,11.851851851851851,0)" xlink:href="#M"/><use transform="matrix(0.06172839506172839,0,0,0.06172839506172839,24.19753086419753,0)" xlink:href="#Z"/><use transform="matrix(0.06172839506172839,0,0,0.06172839506172839,30.37037037037037,0)" xlink:href="#M"/><use transform="matrix(0.06172839506172839,0,0,0.06172839506172839,42.71604938271605,0)" xlink:href="#aa"/><use transform="matrix(0.06172839506172839,0,0,0.06172839506172839,62.46913580246914,0)" xlink:href="#M"/><use transform="matrix(0.06172839506172839,0,0,0.06172839506172839,74.81481481481482,0)" xlink:href="#L"/><use transform="matrix(0.06172839506172839,0,0,0.06172839506172839,82.16049382716051,0)" xlink:href="#N"/><use transform="matrix(0.06172839506172839,0,0,0.06172839506172839,90.80246913580248,0)" xlink:href="#W"/></g><g id="C"><use transform="matrix(0.06172839506172839,0,0,0.06172839506172839,0,0)" xlink:href="#aD"/><use transform="matrix(0.06172839506172839,0,0,0.06172839506172839,14.814814814814813,0)" xlink:href="#aE"/><use transform="matrix(0.06172839506172839,0,0,0.06172839506172839,27.160493827160494,0)" xlink:href="#aF"/><use transform="matrix(0.06172839506172839,0,0,0.06172839506172839,40.67901234567901,0)" xlink:href="#M"/><use transform="matrix(0.06172839506172839,0,0,0.06172839506172839,53.02469135802469,0)" xlink:href="#aa"/><use transform="matrix(0.06172839506172839,0,0,0.06172839506172839,72.77777777777777,0)" xlink:href="#V"/><use transform="matrix(0.06172839506172839,0,0,0.06172839506172839,85.12345679012346,0)" xlink:href="#aG"/></g><g id="D"><use transform="matrix(0.06172839506172839,0,0,0.06172839506172839,0,0)" xlink:href="#aB"/><use transform="matrix(0.06172839506172839,0,0,0.06172839506172839,15.987654320987653,0)" xlink:href="#M"/><use transform="matrix(0.06172839506172839,0,0,0.06172839506172839,28.333333333333332,0)" xlink:href="#aH"/><use transform="matrix(0.06172839506172839,0,0,0.06172839506172839,41.85185185185185,0)" xlink:href="#P"/><use transform="matrix(0.06172839506172839,0,0,0.06172839506172839,48.02469135802469,0)" xlink:href="#Q"/><use transform="matrix(0.06172839506172839,0,0,0.06172839506172839,60.37037037037037,0)" xlink:href="#L"/><use transform="matrix(0.06172839506172839,0,0,0.06172839506172839,67.71604938271605,0)" xlink:href="#N"/><use transform="matrix(0.06172839506172839,0,0,0.06172839506172839,76.35802469135803,0)" xlink:href="#W"/><use transform="matrix(0.06172839506172839,0,0,0.06172839506172839,87.03703703703704,0)" xlink:href="#aG"/></g><g id="E"><use transform="matrix(0.06172839506172839,0,0,0.06172839506172839,0,0)" xlink:href="#V"/><use transform="matrix(0.06172839506172839,0,0,0.06172839506172839,12.345679012345679,0)" xlink:href="#K"/><use transform="matrix(0.06172839506172839,0,0,0.06172839506172839,25.864197530864196,0)" xlink:href="#U"/></g><g id="F"><use transform="matrix(0.06172839506172839,0,0,0.06172839506172839,0,0)" xlink:href="#aB"/><use transform="matrix(0.06172839506172839,0,0,0.06172839506172839,15.987654320987653,0)" xlink:href="#M"/><use transform="matrix(0.06172839506172839,0,0,0.06172839506172839,28.333333333333332,0)" xlink:href="#Q"/><use transform="matrix(0.06172839506172839,0,0,0.06172839506172839,40.67901234567901,0)" xlink:href="#S"/><use transform="matrix(0.06172839506172839,0,0,0.06172839506172839,54.19753086419753,0)" xlink:href="#Z"/><use transform="matrix(0.06172839506172839,0,0,0.06172839506172839,60.370370370370374,0)" xlink:href="#aC"/><use transform="matrix(0.06172839506172839,0,0,0.06172839506172839,72.71604938271605,0)" xlink:href="#M"/><use transform="matrix(0.06172839506172839,0,0,0.06172839506172839,85.06172839506173,0)" xlink:href="#U"/></g><g id="G"><use transform="matrix(0.06172839506172839,0,0,0.06172839506172839,0,0)" xlink:href="#Y"/><use transform="matrix(0.06172839506172839,0,0,0.06172839506172839,11.851851851851851,0)" xlink:href="#M"/><use transform="matrix(0.06172839506172839,0,0,0.06172839506172839,24.19753086419753,0)" xlink:href="#Z"/><use transform="matrix(0.06172839506172839,0,0,0.06172839506172839,30.37037037037037,0)" xlink:href="#M"/><use transform="matrix(0.06172839506172839,0,0,0.06172839506172839,42.71604938271605,0)" xlink:href="#aa"/><use transform="matrix(0.06172839506172839,0,0,0.06172839506172839,62.46913580246914,0)" xlink:href="#M"/><use transform="matrix(0.06172839506172839,0,0,0.06172839506172839,74.81481481481482,0)" xlink:href="#L"/><use transform="matrix(0.06172839506172839,0,0,0.06172839506172839,82.16049382716051,0)" xlink:href="#N"/><use transform="matrix(0.06172839506172839,0,0,0.06172839506172839,90.80246913580248,0)" xlink:href="#W"/></g><g id="H"><use transform="matrix(0.06172839506172839,0,0,0.06172839506172839,0,0)" xlink:href="#aD"/><use transform="matrix(0.06172839506172839,0,0,0.06172839506172839,14.814814814814813,0)" xlink:href="#aE"/><use transform="matrix(0.06172839506172839,0,0,0.06172839506172839,27.160493827160494,0)" xlink:href="#aF"/><use transform="matrix(0.06172839506172839,0,0,0.06172839506172839,40.67901234567901,0)" xlink:href="#M"/><use transform="matrix(0.06172839506172839,0,0,0.06172839506172839,53.02469135802469,0)" xlink:href="#aa"/><use transform="matrix(0.06172839506172839,0,0,0.06172839506172839,72.77777777777777,0)" xlink:href="#V"/></g><path fill="#4c535d" d="M199 0l-22-63H83L61 0H9l90-248h61L250 0h-51zm-33-102l-36-108c-10 38-24 72-36 108h72" id="aJ"/><g id="I"><use transform="matrix(0.049382716049382706,0,0,0.049382716049382706,0,0)" xlink:href="#aJ"/><use transform="matrix(0.049382716049382706,0,0,0.049382716049382706,12.790123456790122,0)" xlink:href="#O"/><use transform="matrix(0.049382716049382706,0,0,0.049382716049382706,23.604938271604937,0)" xlink:href="#O"/><use transform="matrix(0.049382716049382706,0,0,0.049382716049382706,34.419753086419746,0)" xlink:href="#Z"/><use transform="matrix(0.049382716049382706,0,0,0.049382716049382706,39.35802469135802,0)" xlink:href="#P"/><use transform="matrix(0.049382716049382706,0,0,0.049382716049382706,44.29629629629629,0)" xlink:href="#aE"/><use transform="matrix(0.049382716049382706,0,0,0.049382716049382706,54.17283950617284,0)" xlink:href="#V"/><use transform="matrix(0.049382716049382706,0,0,0.049382716049382706,64.04938271604938,0)" xlink:href="#L"/><use transform="matrix(0.049382716049382706,0,0,0.049382716049382706,69.92592592592592,0)" xlink:href="#P"/><use transform="matrix(0.049382716049382706,0,0,0.049382716049382706,74.86419753086419,0)" xlink:href="#S"/><use transform="matrix(0.049382716049382706,0,0,0.049382716049382706,85.679012345679,0)" xlink:href="#K"/><use transform="matrix(0.049382716049382706,0,0,0.049382716049382706,96.49382716049381,0)" xlink:href="#aI"/><use transform="matrix(0.049382716049382706,0,0,0.049382716049382706,102.37037037037035,0)" xlink:href="#Z"/><use transform="matrix(0.049382716049382706,0,0,0.049382716049382706,107.30864197530862,0)" xlink:href="#M"/><use transform="matrix(0.049382716049382706,0,0,0.049382716049382706,117.18518518518516,0)" xlink:href="#aC"/><use transform="matrix(0.049382716049382706,0,0,0.049382716049382706,127.0617283950617,0)" xlink:href="#M"/><use transform="matrix(0.049382716049382706,0,0,0.049382716049382706,136.93827160493825,0)" xlink:href="#Z"/></g></defs></g></svg>